<svg id="Layer_1" data-name="Layer 1" xmlns="http://www.w3.org/2000/svg" viewBox="0 0 212.65 56.2"><defs><style>.cls-1,.cls-3{fill:#383017;}.cls-1,.cls-2{fill-rule:evenodd;}.cls-2{fill:#e69d24;}</style></defs><title>datawheel</title><path class="cls-1" d="M481.58,98.93h-2.32v-16c2.86,0,6.47-.09,8.69,1.58,3.83,2.86,3.84,10.16.38,12.91-1.62,1.29-3.91,1.53-6.75,1.53h0Zm-5.63,3.42c3.14,0,9.05.27,11.75-.62a8.65,8.65,0,0,0,4.57-3.49,13.77,13.77,0,0,0,1-12.63,9.9,9.9,0,0,0-5.93-5.44c-2.91-.93-8.05-0.67-11.36-0.67v22.85Z" transform="translate(-412.02 -61.94)"/><path class="cls-1" d="M549,102.35h1.33l3.78-9a3.61,3.61,0,0,1,.63-1.24,4.64,4.64,0,0,0,.47,1.29c0.19,0.45.34,0.84,0.52,1.25l3.2,7.73h1.32a14.63,14.63,0,0,1,.84-2.14L567.25,85h-3.42l-1,2.6c-0.31.77-2.88,7.49-3.26,7.78a4.62,4.62,0,0,0-.47-1.29L555.33,85h-1.21c-0.59.89-4,9.85-4.42,10.38l-3.86-9.83c-0.31-.82-0.2-0.55-3.32-0.55-0.38,0-.4-0.06,0,0.8l1.33,3.31c0.61,1.51,1.14,2.9,1.75,4.43l2.62,6.55A17.77,17.77,0,0,1,549,102.35Z" transform="translate(-412.02 -61.94)"/><path class="cls-1" d="M610.86,88a5.11,5.11,0,0,1,3.27,1,4.27,4.27,0,0,1,1.59,2.39h-9.27A4.64,4.64,0,0,1,610.86,88h0Zm-8.28,5.74a9.82,9.82,0,0,0,2.24,6.15c2,2.36,3.88,2.79,7,2.79a7.63,7.63,0,0,0,4.64-1.88,9.71,9.71,0,0,0,2.65-3.87l-2.09-1.11a1.41,1.41,0,0,0-.78-0.32,5.94,5.94,0,0,1-.82,1.5,5.05,5.05,0,0,1-8.93-.48,6,6,0,0,1-.52-2h13.47a9.92,9.92,0,0,0-2.19-7,8.22,8.22,0,0,0-14,2.6A10.73,10.73,0,0,0,602.58,93.74Z" transform="translate(-412.02 -61.94)"/><path class="cls-1" d="M592.43,88a5,5,0,0,1,4.37,2,8.66,8.66,0,0,1,.7,1.39h-9.38a5.17,5.17,0,0,1,1.53-2.34A4.61,4.61,0,0,1,592.43,88h0Zm-8.06,5.19a9.23,9.23,0,0,0,2.3,6.86c2.63,3.27,8.32,3.5,11.47.83a9.64,9.64,0,0,0,1.58-1.73,7.56,7.56,0,0,0,1.1-2.21c-0.48-.25-0.86-0.48-1.36-0.74a6.15,6.15,0,0,0-1.4-.7,10.25,10.25,0,0,1-1.91,2.73,5.1,5.1,0,0,1-6.9-.21,5.48,5.48,0,0,1-1.33-2.42,8,8,0,0,0-.24-1.08h13.47v-1.1c0-4.56-3.54-8.72-8.06-8.72a7.41,7.41,0,0,0-6.27,2.56A9.32,9.32,0,0,0,584.37,93.19Z" transform="translate(-412.02 -61.94)"/><path class="cls-1" d="M499.24,94.29c0-1.85.21-3.31,1.52-4.67,3.39-3.53,8.86-.85,8.86,3.78a5.6,5.6,0,0,1-1.52,4.44A4.31,4.31,0,0,1,506.57,99c-3.82,1.84-7.33-1.66-7.33-4.68h0ZM495.93,93v1.55a9.1,9.1,0,0,0,2.4,5.55,7.5,7.5,0,0,0,6.32,2.62,6.74,6.74,0,0,0,3.84-1.24l1-.75v1.66h3.31v-17a0.27,0.27,0,0,0-.33-0.33c-3.57,0-3-.34-3,1.66a15.15,15.15,0,0,0-2.08-1.34,8,8,0,0,0-9,1.92,10.25,10.25,0,0,0-.88,1.11,7.38,7.38,0,0,0-.77,1.33A7.79,7.79,0,0,0,495.93,93Z" transform="translate(-412.02 -61.94)"/><path class="cls-1" d="M533.25,99.48c-5.79,0-7.2-8.43-2.32-10.93a5.07,5.07,0,0,1,4.39-.07,4.69,4.69,0,0,1,1.55,1.21A6.34,6.34,0,0,1,538,96a5.81,5.81,0,0,1-1,1.75,5.48,5.48,0,0,1-3.77,1.75h0Zm-8.61-6a9.18,9.18,0,0,0,4.49,8.21,7.94,7.94,0,0,0,8.16-.3,10.73,10.73,0,0,1,1-.73v1.66h3.2V85h-3.2v1.77a11.72,11.72,0,0,0-2-1.4,7.93,7.93,0,0,0-9.27,2A8.81,8.81,0,0,0,524.63,93.52Z" transform="translate(-412.02 -61.94)"/><path class="cls-1" d="M567.92,102.35h3.31c0-1.87-.14-9.05.19-10.52,1-4.21,5.5-5,6.94-2.58a8.72,8.72,0,0,1,.71,4.26v8.83h3a0.27,0.27,0,0,0,.33-0.33c0-1.71.11-9.38-.17-11.2a8.25,8.25,0,0,0-.9-3.08,6.06,6.06,0,0,0-8-2.43,8.7,8.7,0,0,0-2.06,1.36V78.95h-3.31v23.41Z" transform="translate(-412.02 -61.94)"/><path class="cls-2" d="M421.84,111.19c1,1.51,5.48,4,7.48,4.78a29.1,29.1,0,0,0,9.89,2.18h1.74a30.66,30.66,0,0,0,9.92-2.11,28.11,28.11,0,0,0,6.81-4,1.6,1.6,0,0,0,.71-0.84c-0.08-.13-1.67-1.8-1.77-1.88a5.22,5.22,0,0,0-1.61,1,23.56,23.56,0,0,1-3.29,2,25.46,25.46,0,0,1-21.53.84,22.43,22.43,0,0,1-3.37-1.82,37.81,37.81,0,0,0-3.22-2.08A9,9,0,0,1,421.84,111.19Z" transform="translate(-412.02 -61.94)"/><path class="cls-2" d="M412,89.66l0.16,2.94a26.69,26.69,0,0,0,1.83,7.78c0.16,0.41.28,0.66,0.48,1.06s0.32,0.76.51,1.14l1.72,3a30.32,30.32,0,0,0,2.14,2.71l2-2c-1.81-2.67-2.71-3.53-4-6.67a25.35,25.35,0,0,1-.06-19.14,20.48,20.48,0,0,1,2.9-5.16c1.34-1.79,1.76-1.44-.76-3.63-1.55,1-4,5.51-4.8,7.57A29.25,29.25,0,0,0,412,89.66Z" transform="translate(-412.02 -61.94)"/><path class="cls-2" d="M459.49,73.65a4.06,4.06,0,0,0,1.06,1.7L461.68,77a22.47,22.47,0,0,1,1.84,3.68,24.94,24.94,0,0,1,1.31,14.43A26,26,0,0,1,460,105.52a1.72,1.72,0,0,0-.52.92l1.85,1.9a3.53,3.53,0,0,0,.8-0.8,21,21,0,0,0,4-6.83c3.3-8.92,2.8-17.31-2.14-25.5a13.64,13.64,0,0,0-2.63-3.44C461.05,72,459.49,73.27,459.49,73.65Z" transform="translate(-412.02 -61.94)"/><path class="cls-2" d="M421.84,68.68c0.14,0.2,1.81,2,2,2.1l1.64-1.12a20.87,20.87,0,0,1,4.33-2.52,25.17,25.17,0,0,1,25,2.46,13.77,13.77,0,0,0,1.58,1.18l2.12-2.07L455,66.25c-3.8-2.29-9-4.31-13.58-4.31h-2.54c-4.86,0-9.62,2-13.48,4.3C423.78,67.19,423.13,67.82,421.84,68.68Z" transform="translate(-412.02 -61.94)"/><path class="cls-2" d="M439,111.08c3.19,0,7.22-.13,9.83-1.88-0.43-.82-0.89-1.61-1.32-2.43a10.87,10.87,0,0,0-1.56.43,17.4,17.4,0,0,1-11.37.14l-1.61-.6a20.8,20.8,0,0,1-2.73-1.46,18.42,18.42,0,0,1-4.81-4.68,20,20,0,0,1-1.26-2.05,22.29,22.29,0,0,1-2.05-6.45h-2.87c0,5.25,3.59,10.37,6.27,13.06C428.82,108.52,434.26,111.08,439,111.08Z" transform="translate(-412.02 -61.94)"/><path class="cls-2" d="M419.19,88c3.67,0,2.78.42,3.15-1.59,1.81-9.79,11.78-16.25,21.79-14.08,1.12,0.24,2.7,1,3.43,1,0.18-.68,1.16-1.91,1.21-2.54a3.35,3.35,0,0,1-.84-0.37c-2.32-1.14-6.14-1.4-8.76-1.4a20.53,20.53,0,0,0-12.32,4.68,22.46,22.46,0,0,0-4.1,4.4c-0.19.26-.32,0.45-0.49,0.72C420.7,81.32,419.19,85,419.19,88Z" transform="translate(-412.02 -61.94)"/><path class="cls-2" d="M451,75.63c1.59,0.84,2.14,1.8,3.34,3.06,1.9,2,3.95,7,3.95,10.41A18.65,18.65,0,0,1,456,99a13.2,13.2,0,0,1-2.22,3.08l-0.62.71a3,3,0,0,1-.37.29,3.87,3.87,0,0,0-.34.32,5.93,5.93,0,0,1-1.46,1.19,24.78,24.78,0,0,0,1.32,2.54c1.25-.29,3.29-2.71,4.17-3.78l1.39-1.92c0.24-.36.44-0.63,0.65-1a20.74,20.74,0,0,0,0-20.53,17,17,0,0,0-1.24-2c-0.26-.36-0.43-0.64-0.69-1l-0.76-.9a9.5,9.5,0,0,1-.79-0.87A10.51,10.51,0,0,0,452.32,73,18.52,18.52,0,0,0,451,75.63Z" transform="translate(-412.02 -61.94)"/><path class="cls-2" d="M440.94,78.84c2.82,0.66,4.65,1.1,6.87,3.06A11.48,11.48,0,0,1,450,84.72c3.16,6.34.2,13.49-5.5,15.63-0.34.13-.68,0.2-1,0.35l0.22,2.87c2.25,0,5.8-2.68,7.27-4.54a13.83,13.83,0,0,0,2.18-3.68,14.27,14.27,0,0,0-.28-11.43,9.14,9.14,0,0,0-.6-1.06,11,11,0,0,0-.64-1,14.27,14.27,0,0,0-8.05-5.42,15.59,15.59,0,0,0-3-.46Z" transform="translate(-412.02 -61.94)"/><path class="cls-2" d="M439.62,104.12a20.91,20.91,0,0,0-.28-2.7c-0.17-.3-1.67-0.49-2.38-0.71-10.72-3.32-9.75-17.2-1.79-20.69,0.56-.24,1.2-0.39,1.69-0.63,0-.85-0.26-2-0.33-2.87-1.89,0-4.9,2.07-6.21,3.39l-1.5,1.82c-3.51,5.18-3.84,11.51.14,16.82A14.11,14.11,0,0,0,439.62,104.12Z" transform="translate(-412.02 -61.94)"/><path class="cls-1" d="M517.46,85c-1.56,0-2.65-.24-2.65.33v2.87h2.65v14.13h3a0.27,0.27,0,0,0,.33-0.33V88.22h3V85h-3V79.17h-3.31V85Z" transform="translate(-412.02 -61.94)"/><rect class="cls-3" x="209.34" y="17" width="3.31" height="23.41"/></svg>