<svg id="Layer_1" data-name="Layer 1" xmlns="http://www.w3.org/2000/svg" viewBox="0 0 219.34 178.12"><defs><style>.cls-1{fill:#2670b8;fill-rule:evenodd;}</style></defs><title>fapemig</title><path class="cls-1" d="M358,419h5.54L363.63,388c2.08,2.76,9.89,16,10.94,17.12l0.73-.9c2.15-3.23,8.85-14.71,10.11-16.27,0.76,7.15-.69,25.45.2,31l5.52,0V382.25c-0.54-4.14-5.77-7.32-9.89-.14-1.32,2.3-5.71,10.61-6.67,11.86C372,391.85,368,378.36,363,377.89c-6.64-.62-5.12,9.2-5.12,13.32C357.86,394.85,357.64,417.37,358,419Z" transform="translate(-225.4 -240.9)"/><path class="cls-1" d="M291.84,418.93l6.67,0c0.4-3.36-.52-12.25.24-14.64,9.79,0.15,16.17-.86,18-9.65,1.48-7.2-1-15.87-10.86-16.26-12.41-.5-14.1.33-14.1,13,0,4-.26,25.48.08,27.49h0Zm6.77-21.64a99,99,0,0,1,0-10.75c0.13-1.42.35-1.26,1.71-1.26,4.56,0,8.67-.6,9.63,3.77a8.91,8.91,0,0,1-.25,4.79C308.18,397.81,302.68,397.34,298.61,397.29Z" transform="translate(-225.4 -240.9)"/><path class="cls-1" d="M251.21,418.94l6.68,0,3-9.39,13.66-.05a94.05,94.05,0,0,0,3.06,9.45h7c-0.06-.95-9.78-30.42-10.47-32.45-1.21-3.52-1.83-8.53-6.09-8.64-4.46-.12-5.18,4.45-6.34,8.17s-10.43,31.68-10.48,32.9h0Zm11.87-16.38,4.69-14.82,4.51,14.85Z" transform="translate(-225.4 -240.9)"/><path class="cls-1" d="M444.65,417l0.08-22.32-13,0v6.75h6.27l0,10c-1.69.89-5.22,0.66-7,.25a9,9,0,0,1-5.1-3c-6.26-6.7-4.33-29.38,14-22.61,1.25,0.46,1.8,1.09,3.14.94l0-6.9c-1.7-1.33-7.7-2.26-10.39-2.19-19.63.53-21.75,29.65-8.74,38.54A17,17,0,0,0,434,419C436.52,418.87,442.73,418,444.65,417Z" transform="translate(-225.4 -240.9)"/><path class="cls-1" d="M349,419l0.15-7.15c-4.76,0-9.5,0-14.23,0-3.29,0-3.25-.41-3.25-3.66a69.54,69.54,0,0,1,.08-7.13h12.87v-6.76l-12.9-.09c-0.75-9.85.46-8.7,4.13-8.7h13.27c0-1.57.21-5.85-.12-7.16H337.9c-6.28,0-13.06-1.25-13.06,9.18v22.28c0,10.47,6.82,9.18,13.06,9.18H349Z" transform="translate(-225.4 -240.9)"/><path class="cls-1" d="M295.7,322.73c-1.55,6.55-2.08,15.64,1,21.29,2.54,4.73,8.08,8.47,13.94,10.9,12.52,5.19,28,7,43.3,5.83,13.18-1,29.82-5.42,36.65-12.74,7.15-7.66,6.5-19.18,3.6-29.52-0.6-2.14-2.24-7.9-3.33-9.22-2.48,2.38-1,3.12.18,8.64,1.4,6.68,1.65,13.94-.95,20.31a20.9,20.9,0,0,1-4.81,7c-7.67,6.43-19.87,12.21-33,13.67a67.82,67.82,0,0,1-38.65-7.48c-16-8.46-13-13.28-15.16-19.65-0.5-1.45-1-2.92-1.39-4.41A25.8,25.8,0,0,0,295.7,322.73Z" transform="translate(-225.4 -240.9)"/><path class="cls-1" d="M301.49,258.62l3.45,0.1a42.5,42.5,0,0,0,2.44-3.64c2.48-3.65,5.59-7.32,10.06-8.73,6.55-2.07,15.68-.55,21.93,1.1a78.24,78.24,0,0,1,32.19,17.72c8.76,8,18.88,19.91,16.32,32.82-1.63,8.23-9.34,17.11-14.7,22.66-1.18,1.22-4.51,6.75-5.16,7.06,2.13-.12,13.31-10,15.41-12.13a55.81,55.81,0,0,0,6.22-7.7c12.34-18-6.13-35.59-16.81-44.42-8.72-7.21-22.14-16-35.65-20-6.91-2-16.87-4.14-23.71-.55-3.26,1.71-5.12,3.88-7.17,6.74C305.26,251,301.85,256.67,301.49,258.62Z" transform="translate(-225.4 -240.9)"/><path class="cls-1" d="M320.28,359.89c-1.6-.44-3.24-0.78-4.86-1.22-3.19-.85-8.76.87-17-0.19-7.9-1-11.1-5.1-14.34-10.48-10.46-17.41-12.1-40.92-5.1-61,2-5.85,5.48-12.42,8.76-16.08a13.76,13.76,0,0,1,7.38-4.92c7.57-2.23,19.55-.49,27.1,1.82,0.84,0.26,1.56.68,2.2,0.33a7.33,7.33,0,0,0,1.66-1.64c-6.85-2.43-12.61-4.81-20.89-5.62-9-.88-15.63.68-19.94,6.15-7.66,9.71-11.36,25.88-11.81,41.26s1.45,31.08,8.55,44.54c5.84,11.08,15.88,12.21,27.74,9.94C312.07,362.37,318.67,361,320.28,359.89Z" transform="translate(-225.4 -240.9)"/><path class="cls-1" d="M225.64,419h6.54l0.11-17.61,12.85,0,0.09-7-12.95-.06c0-9.25-.78-8.76,4.41-8.75,3.65,0,9.83.36,13.18-.09v-7c-5.23-.25-11,0-16.19,0-3.06,0-4.3.36-5.94,2.08a8.2,8.2,0,0,0-2.24,5.94C225.4,389.91,225.28,417.49,225.64,419Z" transform="translate(-225.4 -240.9)"/><path class="cls-1" d="M332.26,271.44a18.36,18.36,0,0,0,3.06,1.66,92,92,0,0,1,19.16,13.56,49.27,49.27,0,0,1,8.37,10.2c6.84,11.18,5.36,19.1-1.07,29.79a67.59,67.59,0,0,1-30.13,26.5,31.73,31.73,0,0,0-3.78,1.61c2.66,1.93,4.84,0,7.51-1.36a107.93,107.93,0,0,0,13.3-8.29,86.47,86.47,0,0,0,11.61-10,62.48,62.48,0,0,0,5.16-5.74c10.81-13.64,9.66-24.61-1.76-37.33-0.9-1-1.59-1.86-2.54-2.8l-5.81-5.1a126.08,126.08,0,0,0-16.1-11.06c-1.15-.68-2.26-1.24-3.42-1.91C334,270.15,333.88,270,332.26,271.44Z" transform="translate(-225.4 -240.9)"/><path class="cls-1" d="M294.15,296.28c0,11.3,1,23.47,5.36,33.28,4.84,11,9.61,14.3,22.84,14.3,5.85,0,13.31-1.64,18.36-3.22a116.54,116.54,0,0,0,11.86-4.38,7.49,7.49,0,0,0,2.59-3.08c-1.83.45-6.68,2.86-12.36,4.2a64.86,64.86,0,0,1-17.2,1.94c-8.87,0-15.63-1.75-19.49-7.07-10.36-14.26-12.7-37-8.56-54.3,0.9-3.77,2-7,3.18-10.31l-2.51.11c-1.2,3-2.35,9.72-2.86,13.34A109.51,109.51,0,0,0,294.15,296.28Z" transform="translate(-225.4 -240.9)"/><path class="cls-1" d="M300.07,315.38c1.53-3,1.9-13.76,13.67-29.57a76.3,76.3,0,0,1,10.46-11.12,53.72,53.72,0,0,1,13.11-8.47c6.51-2.94,10.78-2.27,16.81.84a52.9,52.9,0,0,1,6.6,4.07,80.23,80.23,0,0,1,11.37,10.22,77.46,77.46,0,0,1,9.24,12.58c0.67,1.15,1.24,2.22,1.92,3.43l1.67,3.23a1,1,0,0,0,.41.42c0.83-2.39,1.2-1.54-.14-4-7.05-12.72-16.92-27-29.63-34.2-6.27-3.53-10.89-4.56-18.27-1.31-13.41,5.9-26.5,24.21-32.91,37a123.11,123.11,0,0,0-5.27,12.13,3.12,3.12,0,0,0,.13,2.52l0.75,2.07Z" transform="translate(-225.4 -240.9)"/><polygon class="cls-1" points="176.1 178.02 182.9 178.06 182.9 137.47 176.1 137.43 176.1 178.02"/></svg>