<svg xmlns="http://www.w3.org/2000/svg" viewBox="0 0 208.4 199.7"> <path d="M85.7 24.1L63.3 186.8c-0.3 1.9 0 2.9 1.7 1.9 18.4-10.8 39.1-20.3 61.4-30.1 25.9-11.4 47.5-20.4 73.7-25.2 5.4-0.6 4.9-5.2 1.9-7.9 -5.9-4.7-11.3-10.1-16.1-16 -35-34.3-85.1-84-87.8-85.9C90.8 17.7 86.7 19.7 85.7 24.1L85.7 24.1 85.7 24.1zM57.8 188.3c3.4-26.3 6.2-50.2 11-75.7 4.4-25.8 7-58 10.9-85.3 0.1-0.7 1.3-1.3 1.3-0.6 -2.3 19.1-6 47.7-8.3 65.9 -3.2 32.3-6.8 54.3-12.4 83.9 -0.4 2.4 1.2 5.6 3.4 5.5L57.8 188.3z" style="fill:#CA7A95;opacity:0.8"/> <path d="M15.9 142.6l163.9-10.7c2-0.1 2.8-0.6 1.5-2 -14.2-15.8-27.7-34.2-41.8-54.1C123.1 52.7 110 33.3 100 8.7c-1.7-5.2-6.1-3.7-8.2-0.2 -3.4 6.8-7.6 13.1-12.4 19C52.9 68.6 14.1 127.6 12.9 130.7 8.7 138.9 11.5 142.5 15.9 142.6L15.9 142.6 15.9 142.6zM182.4 137c-26.5 2-50.4 4-76.4 4.4 -26.2 0.9-58.2 4.8-85.8 6.4 -0.7 0-1.6-1-0.9-1.1 19.1-1.5 47.9-3.6 66.2-5.1 32.3-3.3 54.5-4.2 84.7-4.7 2.5-0.1 5.3-2.2 4.8-4.5L182.4 137z" fill="#6B4B51"/> <path d="M6.6 97.1L147.7 181c1.7 1 2.7 1.1 2.4-0.8 -2.8-21.1-3.4-43.9-3.8-68.3 -0.4-28.3-0.3-51.7 5.4-77.6 1.5-5.3-2.9-6.5-6.6-4.8 -6.6 3.7-13.7 6.5-21 8.6C79 57 13.6 83.8 10.9 85.6 2.8 89.9 3 94.5 6.6 97.1L6.6 97.1zM147 186.7c-22.9-13.4-43.9-25.2-65.5-39.6 -22.1-14.1-50.7-29-74.3-43.3 -0.6-0.4-0.7-1.7-0.1-1.4 16.6 9.6 41.6 24.1 57.4 33.2C93 151.2 111.8 163 137 179.7c2.1 1.3 5.6 1.1 6.4-1L147 186.7z" style="fill:#F5BC33;opacity:0.8"/> <path d="M5.8 78.4l121.9 110.1c1.5 1.3 2.4 1.6 2.5-0.3 1.5-21.2 5.3-43.7 9.7-67.7 5.1-27.8 9.9-50.8 20.6-75 2.5-4.9-1.6-7-5.5-6 -7.2 2.3-14.7 3.7-22.3 4.3C84.6 53.4 15.4 66.7 12.3 68 3.5 70.7 2.8 75.2 5.8 78.4L5.8 78.4 5.8 78.4zM125.8 194c-19.8-17.6-38-33.4-56.4-51.7 -18.9-18.1-44-38.4-64.4-57.1 -0.5-0.5-0.4-1.8 0.2-1.4 14.4 12.7 36 31.8 49.8 43.9 24.9 20.9 41 36.1 62.4 57.5 1.8 1.7 5.3 2.2 6.5 0.3L125.8 194z" style="fill:#E3E989;opacity:0.8"/> <path d="M126.6 7.6l-113 119.2c-1.3 1.4-1.7 2.3 0.3 2.5 21.2 2 43.6 6.3 67.4 11.3 27.7 5.8 50.5 11.1 74.5 22.4 4.8 2.7 7-1.4 6.1-5.4 -2.1-7.3-3.3-14.8-3.8-22.4C149.7 87 138 17.4 136.9 14.3 134.4 5.4 129.9 4.7 126.6 7.6L126.6 7.6 126.6 7.6zM8.2 124.8c18.1-19.4 34.3-37.2 53.1-55.1 18.6-18.4 39.5-43 58.6-63 0.5-0.5 1.8-0.3 1.4 0.2 -13 14.1-32.7 35.2-45.1 48.7 -21.4 24.4-37.1 40.1-59 60.9 -1.7 1.7-2.3 5.2-0.5 6.5L8.2 124.8z" style="fill:#41C1C8;opacity:0.8"/> <path d="M84.2 192.8L192.1 68.9c1.3-1.5 1.6-2.4-0.4-2.5 -21.3-1.1-43.8-4.5-67.9-8.5C96 53.3 72.9 49 48.4 38.7c-4.9-2.5-6.9 1.7-5.9 5.6 2.4 7.2 4 14.6 4.7 22.2 10.5 47.9 25.1 116.9 26.4 120C76.5 195.3 81 195.9 84.2 192.8L84.2 192.8zM197.5 70.6c-17.3 20.2-32.7 38.6-50.7 57.3 -17.8 19.2-37.6 44.7-55.9 65.4 -0.5 0.6-1.8 0.4-1.4-0.2 12.4-14.7 31.2-36.6 43-50.6 20.4-25.3 35.4-41.7 56.3-63.4 1.7-1.8 2.1-5.3 0.2-6.5L197.5 70.6z" style="fill:#A23F9F;opacity:0.8"/> <path d="M177 52.2l-164 9.2c-2 0.1-2.8 0.5-1.5 2C25.6 79.5 38.9 98 52.8 118 69 141.2 82 160.7 91.7 185.4c1.7 5.2 6.1 3.8 8.1 0.3 3.5-6.7 7.7-13.1 12.6-18.9 27-40.9 66.2-99.6 67.5-102.7C184.2 56.1 181.4 52.4 177 52.2L177 52.2 177 52.2zM10.5 56.3c26.5-1.7 50.5-3.6 76.4-3.7 26.2-0.7 58.2-4.2 85.8-5.7 0.7 0 1.6 1 0.9 1.1 -19.2 1.4-48 3.2-66.2 4.5 -32.3 3-54.5 3.7-84.7 3.9 -2.5 0.1-5.3 2.2-4.8 4.4L10.5 56.3z" style="fill:#65B380;opacity:0.8"/> <path d="M67.4 16.4L67.4 16.4c-3.4-2.8-7.9-1.8-10 7.2 -1 3.2-9.6 73.2-15.9 121.8 -0.1 7.6-1 15.1-2.8 22.5 -0.6 4 1.7 8 6.4 5.1 23.5-12.4 46.1-18.7 73.5-25.7 23.7-6.1 45.8-11.4 66.9-14.3 1.9-0.3 1.6-1.2 0.2-2.5L67.4 16.4 67.4 16.4zM182.2 126.9c1.8-1.3 1.1-4.8-0.7-6.5 -22.8-19.9-39.1-34.9-61.6-58.3 -13-12.9-33.6-33.1-47.2-46.7 -0.5-0.5 0.8-0.8 1.4-0.3 20 19.1 41.9 42.7 61.3 60.3 19.6 17 36.5 34.1 55.5 52.7L182.2 126.9z" style="fill:#C82027;opacity:0.8"/> <path d="M90.6 164c4.4 0 18.9 0.2 22.1 0 0.1-0.8 2.3-6.1 2.8-7.4l2.9-7.4c9.5-24.8 19.7-49.6 29-74.3 1.9-5 4-9.9 5.8-14.9 0.9-2.5 1.9-4.9 2.9-7.4 1-2.5 2.1-5.1 2.9-7.7h-27c-0.5 1.7-1.1 3.4-1.8 5l-17.2 46.1c-1.2 3.2-10.5 28.2-11.2 31.1 -0.4-0.3-0.7-0.7-0.7-1.2 -3.2-9.9-7.2-19.9-10.7-29.6L73.2 50.1c-0.7-1.7-1.4-3.5-1.9-5.2H44.2l14.5 37.2c3.7 9.8 8 20 11.7 29.8l17.4 44.5c0.4 1.2 1 2.4 1.4 3.7C89.6 161.3 90.4 162.8 90.6 164L90.6 164 90.6 164z" fill="#FFF"/> </svg>