<svg id="Layer_1" data-name="Layer 1" xmlns="http://www.w3.org/2000/svg" viewBox="0 0 85.01 66.24"><defs><style>.cls-1{fill:#808285;}.cls-1,.cls-2{fill-rule:evenodd;}.cls-2{fill:#f8991d;}</style></defs><title>r13</title><path class="cls-1" d="M192.4,173.83c0.83,0.44,6.74,3,7.68,3.12,1.31-5.61,8.07-5.9,10.47-3,2.11,2.52,2.57,5.88.16,8.38a6,6,0,0,1-1.43,1.22,5,5,0,0,1-1.76.88c0.71,1,4.81,2.23,4.71,6.69-0.07,2.95-2.52,6-5.67,6-2,0-3.41,0-4.87-1.61a7.13,7.13,0,0,1-1.61-3.43c-1,.08-6.57,2.77-7.68,3.36,0.59,1.23.5,2.4,2.1,4.38a15.29,15.29,0,0,0,18.68,3.68c10.79-6,6.34-17.17,6.34-18.86,0-.68.47-2.06,0.62-3,2.78-16.88-14.33-21.23-23-14.82C195.37,168.15,192.62,171.12,192.4,173.83Z" transform="translate(-158.8 -139.51)"/><path class="cls-1" d="M158.8,185.59v19.23a0.58,0.58,0,0,0,.72.69h8.4V184.39a10.47,10.47,0,0,1,3.3-8,12.64,12.64,0,0,1,8.22-3.06V164c-1.46.34-2.89,0.48-4.42,0.86a21.76,21.76,0,0,0-7.34,3.22C162,171.79,158.8,178.77,158.8,185.59Z" transform="translate(-158.8 -139.51)"/><path class="cls-2" d="M240.64,178.63c3.85,0,3.12-4,3.12-6.72,0-5-1.65-9-3.76-13.28-1.71-3.46-3.36-4.91-5.32-7.4a40.75,40.75,0,0,0-7.07-5.65A39.94,39.94,0,0,0,207,139.51c-2.55,0-3.46,3.68-1.27,5.59,1.08,0.94,2.09.81,3.91,0.89,6,0.26,12.83,3.9,17.18,7.3a30.11,30.11,0,0,1,8.42,11C239.18,172.68,235.33,178.63,240.64,178.63Z" transform="translate(-158.8 -139.51)"/><path class="cls-1" d="M182.32,205.75h8.19a0.58,0.58,0,0,0,.69-0.72V163.75h-8.88v42Z" transform="translate(-158.8 -139.51)"/><path class="cls-2" d="M205.84,155.11c0,4,3.59,3.2,7.07,4.21a16.78,16.78,0,0,1,7.27,4.25,16.13,16.13,0,0,1,5.13,9.27c0.2,1,.1,1.55.23,2.65,0.44,3.48,6.09,3.75,6.44-.25a25.71,25.71,0,0,0-.8-5.64,21.16,21.16,0,0,0-4.39-8.33c-3.52-4.36-10.58-9-16.4-9C208.88,152.23,205.84,151.63,205.84,155.11Z" transform="translate(-158.8 -139.51)"/></svg>