<svg width="140" height="80" xmlns="http://www.w3.org/2000/svg">
 <!-- Created with Method Draw - http://github.com/duopixel/Method-Draw/ -->

 <g>
  <title>background</title>
  <rect fill="#fff" id="canvas_background" height="82" width="142" y="-1" x="-1"/>
  <g display="none" overflow="visible" y="0" x="0" height="100%" width="100%" id="canvasGrid">
   <rect fill="url(#gridpattern)" stroke-width="0" y="0" x="0" height="100%" width="100%"/>
  </g>
 </g>
 <g>
  <title>Layer 1</title>
  <defs>
   <style>.cls-1,.cls-3{fill:#383017;}.cls-1,.cls-2{fill-rule:evenodd;}.cls-2{fill:#e69d24;}</style>
  </defs>
  <g stroke="null" id="svg_50">
   <g stroke="null" transform="matrix(0.5351655738171941,0,0,0.5351655738171941,-6.72030658729167,6.501312887900341) " id="svg_48">
    <title stroke="null" transform="translate(0,-18.685806274414062) translate(-0.000013810634300170932,0) translate(0,-9.342903137207031) translate(0.000013810634300170932,0) translate(0,-9.342904090881348) translate(-9.342903137207031,0) translate(0,-21.446176528930664) translate(-21.446178436279297,0) translate(0,33.522159576416016) translate(33.522159576416016,0) translate(7.031248569488525,0) translate(-885.9373779296875,-615.2343139648438) translate(894.5311279296875,0) translate(0,578.1249389648438) ">background</title>
    <rect stroke="null" x="17.358077" y="-63.405005" width="252" height="252" id="svg_46" fill="none"/>
   </g>
   <g stroke="null" transform="matrix(0.5351655738171941,0,0,0.5351655738171941,-6.72030658729167,6.501312887900341) " id="svg_49">
    <title stroke="null" transform="translate(0,-18.685806274414062) translate(-0.000013810634300170932,0) translate(0,-9.342903137207031) translate(0.000013810634300170932,0) translate(0,-9.342904090881348) translate(-9.342903137207031,0) translate(0,-21.446176528930664) translate(-21.446178436279297,0) translate(0,33.522159576416016) translate(33.522159576416016,0) translate(7.031248569488525,0) translate(-885.9373779296875,-615.2343139648438) translate(894.5311279296875,0) translate(0,578.1249389648438) ">Layer 1</title>
    <g stroke="null" id="svg_25">
     <g stroke="null" id="svg_36">
      <path stroke="null" class="cls-1" d="m35.265097,124.530865l-3.64871,0l0,-25.16351c4.49798,0 10.1755,-0.14154 13.66693,2.4849c6.02352,4.49797 6.03924,15.97882 0.59763,20.3038c-2.5478,2.02881 -6.14933,2.40626 -10.61585,2.40626l0,0l0,-0.03145zm-8.85441,5.41015c4.93834,0 14.23311,0.42464 18.47945,-0.97508a13.60402,13.60402 0 0 0 7.18733,-5.48879a21.65634,21.65634 0 0 0 1.57272,-19.86345a15.56992,15.56992 0 0 0 -9.32623,-8.55559c-4.57661,-1.46263 -12.66039,-1.05372 -17.86609,-1.05372l0,35.93663l-0.04718,0z" id="svg_45"/>
      <path stroke="null" class="cls-1" d="m141.297817,129.909565l2.09172,0l5.94488,-14.15447a5.67752,5.67752 0 0 1 0.99081,-1.95018a7.29742,7.29742 0 0 0 0.73918,2.02881c0.29882,0.70773 0.53472,1.32109 0.81781,1.9659l5.0327,12.15712l2.07599,0a23.00888,23.00888 0 0 1 1.32109,-3.36562l9.68795,-23.96824l-5.3787,0l-1.57272,4.08907c-0.48754,1.21099 -4.52943,11.77967 -5.12707,12.23576a7.26596,7.26596 0 0 0 -0.73917,-2.02881l-5.92915,-14.29602l-1.90299,0c-0.92791,1.39972 -6.29088,15.49128 -6.95142,16.32482l-6.0707,-15.45982c-0.48754,-1.28963 -0.31454,-0.865 -5.22143,-0.865c-0.59763,0 -0.62908,-0.09436 0,1.25817l2.09172,5.2057c0.95936,2.37481 1.7929,4.56089 2.75226,6.96715l4.12052,10.30131a27.94722,27.94722 0 0 1 1.22672,3.55435z" id="svg_44"/>
      <path stroke="null" class="cls-1" d="m238.586227,107.341045a8.0366,8.0366 0 0 1 5.14279,1.57272a6.71551,6.71551 0 0 1 2.50062,3.7588l-14.57911,0a7.29742,7.29742 0 0 1 6.9357,-5.33152l0,0zm-13.02212,9.02741a15.4441,15.4441 0 0 0 3.52289,9.67222c3.14544,3.71162 6.10215,4.38789 11.00904,4.38789a11.99985,11.99985 0 0 0 7.29741,-2.95672a15.2711,15.2711 0 0 0 4.16771,-6.08642l-3.28698,-1.74572a2.21753,2.21753 0 0 0 -1.22672,-0.50327a9.34195,9.34195 0 0 1 -1.28963,2.35908a7.94223,7.94223 0 0 1 -14.04438,-0.7549a9.43632,9.43632 0 0 1 -0.81782,-3.14544l21.18453,0a15.60137,15.60137 0 0 0 -3.44426,-11.00904a12.92775,12.92775 0 0 0 -22.01807,4.08907a16.87528,16.87528 0 0 0 -1.05372,5.69325z" id="svg_43"/>
      <path stroke="null" class="cls-1" d="m209.601007,107.341045a7.8636,7.8636 0 0 1 6.87279,3.14544a13.61975,13.61975 0 0 1 1.1009,2.18608l-14.75211,0a8.13096,8.13096 0 0 1 2.40626,-3.68017a7.25023,7.25023 0 0 1 4.37216,-1.65135l0,0zm-12.67611,8.16241a14.5162,14.5162 0 0 0 3.61725,10.78885c4.13625,5.14279 13.08502,5.50452 18.03909,1.30536a15.16101,15.16101 0 0 0 2.4849,-2.7208a11.88976,11.88976 0 0 0 1.72999,-3.47571c-0.75491,-0.39318 -1.35254,-0.75491 -2.1389,-1.16382a9.67222,9.67222 0 0 0 -2.20181,-1.1009a16.12037,16.12037 0 0 1 -3.00389,4.29352a8.02087,8.02087 0 0 1 -10.85176,-0.33027a8.6185,8.6185 0 0 1 -2.09172,-3.80598a12.58175,12.58175 0 0 0 -0.37745,-1.69853l21.18452,0l0,-1.72999c0,-7.1716 -5.56742,-13.71412 -12.67611,-13.71412a11.65385,11.65385 0 0 0 -9.86095,4.02617a14.65774,14.65774 0 0 0 -3.85316,9.32622z" id="svg_42"/>
      <path stroke="null" class="cls-1" d="m63.039317,117.233445c0,-2.90953 0.33027,-5.2057 2.39053,-7.3446c5.33152,-5.55169 13.93429,-1.33681 13.93429,5.94488a8.80723,8.80723 0 0 1 -2.39053,6.98287a6.77842,6.77842 0 0 1 -2.40626,1.82436c-6.00779,2.8938 -11.52803,-2.61072 -11.52803,-7.36033l0,0l0,-0.04718zm-5.2057,-2.02881l0,2.43772a14.31174,14.31174 0 0 0 3.77453,8.72859a11.79539,11.79539 0 0 0 9.93958,4.12052a10.60013,10.60013 0 0 0 6.03924,-1.95017l1.57272,-1.17954l0,2.61072l5.2057,0l0,-26.73623a0.42463,0.42463 0 0 0 -0.51899,-0.519c-5.61461,0 -4.71816,-0.53472 -4.71816,2.61072a23.82669,23.82669 0 0 0 -3.27126,-2.10745a12.58175,12.58175 0 0 0 -14.15447,3.01962a16.12037,16.12037 0 0 0 -1.38399,1.74572a11.60667,11.60667 0 0 0 -1.211,2.09172a12.25148,12.25148 0 0 0 -1.2739,5.12706z" id="svg_41"/>
      <path stroke="null" class="cls-1" d="m116.527497,125.395855c-9.10605,0 -11.32358,-13.25802 -3.64871,-17.18982a7.97369,7.97369 0 0 1 6.90424,-0.11009a7.37605,7.37605 0 0 1 2.43771,1.90299a9.97104,9.97104 0 0 1 1.77717,9.92386a9.1375,9.1375 0 0 1 -1.57272,2.75226a8.6185,8.6185 0 0 1 -5.92915,2.75226l0,0l0.03146,-0.03146zm-13.57257,-9.40486a14.43756,14.43756 0 0 0 7.06151,12.91203a12.48739,12.48739 0 0 0 12.83339,-0.47182a16.87528,16.87528 0 0 1 1.57272,-1.14808l0,2.61071l5.0327,0l0,-27.27095l-5.0327,0l0,2.78372a18.43227,18.43227 0 0 0 -3.14544,-2.20181a12.47166,12.47166 0 0 0 -14.57911,3.14544a13.85566,13.85566 0 0 0 -3.72734,9.67222l-0.01573,-0.03145l0,-0.00001z" id="svg_40"/>
      <path stroke="null" class="cls-1" d="m171.053667,129.909565l5.2057,0c0,-2.94099 -0.22018,-14.23311 0.29882,-16.54501c1.57272,-6.62115 8.64995,-7.86359 10.91467,-4.05761a13.71411,13.71411 0 0 1 1.11663,6.69978l0,13.88711l4.71816,0a0.42463,0.42463 0 0 0 0.51899,-0.519c0,-2.68935 0.173,-14.7521 -0.26736,-17.61445a12.97493,12.97493 0 0 0 -1.41545,-4.84398a9.53068,9.53068 0 0 0 -12.58175,-3.8217a13.68266,13.68266 0 0 0 -3.2398,2.1389l0,-12.12567l-5.2057,0l0,36.81736l-0.06291,-0.01573z" id="svg_39"/>
      <path stroke="null" class="cls-1" d="m91.694257,102.622885c-2.45344,0 -4.1677,-0.37745 -4.1677,0.519l0,4.5137l4.1677,0l0,22.22252l4.71816,0a0.42463,0.42463 0 0 0 0.519,-0.51899l0,-21.67207l4.71815,0l0,-5.06416l-4.71815,0l0,-9.16895l-5.2057,0l0,9.16895l-0.03146,0z" id="svg_38"/>
      <rect stroke="null" class="cls-3" x="255.099758" y="93.092206" width="5.2057" height="36.817354" id="svg_37"/>
     </g>
     <g stroke="null" id="svg_26">
      <path stroke="null" class="cls-2" d="m113.673007,71.340255c1.57272,2.37481 8.6185,6.29088 11.76394,7.5176a45.76613,45.76613 0 0 0 15.55419,3.42853l2.73653,0a48.21957,48.21957 0 0 0 15.60137,-3.31844a44.20913,44.20913 0 0 0 10.71022,-6.29087a2.51635,2.51635 0 0 0 1.11663,-1.32109c-0.12582,-0.20445 -2.62644,-2.83089 -2.78371,-2.95671a8.20959,8.20959 0 0 0 -2.53208,1.57272a37.05326,37.05326 0 0 1 -5.17425,3.14544a40.04143,40.04143 0 0 1 -33.86064,1.32108a35.27609,35.27609 0 0 1 -5.30006,-2.86235a59.46451,59.46451 0 0 0 -5.06416,-3.27125a14.15447,14.15447 0 0 1 -2.76798,3.03534z" id="svg_35"/>
      <path stroke="null" class="cls-2" d="m98.197447,37.479615l0.25164,4.62379a41.97587,41.97587 0 0 0 2.87807,12.23576c0.25164,0.64481 0.44036,1.03799 0.75491,1.66708s0.50327,1.19527 0.80208,1.7929l2.70508,4.71816a47.68484,47.68484 0 0 0 3.36562,4.26207l3.14544,-3.14544c-2.84662,-4.19916 -4.26207,-5.5517 -6.29088,-10.49004a39.86843,39.86843 0 0 1 -0.09436,-30.10184a32.20929,32.20929 0 0 1 4.56088,-8.11523c2.10745,-2.81517 2.76799,-2.26472 -1.19526,-5.70897c-2.43772,1.57272 -6.29088,8.66568 -7.54905,11.90548a46.00203,46.00203 0 0 0 -3.33417,16.35628z" id="svg_34"/>
      <path stroke="null" class="cls-2" d="m172.885877,12.300385a6.38524,6.38524 0 0 0 1.66708,2.67362l1.77718,2.59499a35.339,35.339 0 0 1 2.8938,5.7876a39.22362,39.22362 0 0 1 2.06026,22.69434a40.8907,40.8907 0 0 1 -7.59623,16.37201a2.70508,2.70508 0 0 0 -0.81782,1.4469l2.90953,2.98816a5.5517,5.5517 0 0 0 1.25818,-1.25817a33.0271,33.0271 0 0 0 6.29088,-10.74167c5.18997,-14.02866 4.40361,-27.22377 -3.36562,-40.10434a21.45189,21.45189 0 0 0 -4.13625,-5.41015c-0.48755,0.36172 -2.94099,2.35907 -2.94099,2.95671z" id="svg_33"/>
      <path stroke="null" class="cls-2" d="m113.673007,4.483965c0.22018,0.31455 2.84662,3.14544 3.14544,3.30271l2.57925,-1.76144a32.82265,32.82265 0 0 1 6.80988,-3.96325a39.58534,39.58534 0 0 1 39.31798,3.86889a21.65634,21.65634 0 0 0 2.48489,1.85581l3.33417,-3.25553l-5.52025,-3.86889c-5.97633,-3.60153 -14.15447,-6.77842 -21.35752,-6.77842l-3.99471,0c-7.64341,0 -15.12956,3.14544 -21.20025,6.76269c-2.54781,1.49408 -3.57007,2.4849 -5.59888,3.83744l0,-0.00001z" id="svg_32"/>
      <path stroke="null" class="cls-2" d="m140.660867,71.167255c5.01697,0 11.35503,-0.20445 15.45983,-2.95671c-0.67627,-1.28963 -1.39972,-2.53208 -2.07599,-3.82171a17.09546,17.09546 0 0 0 -2.45344,0.67627a27.36531,27.36531 0 0 1 -17.88182,0.22018l-2.53208,-0.94363a32.71256,32.71256 0 0 1 -4.29352,-2.29617a28.96949,28.96949 0 0 1 -7.56478,-7.36032a31.45438,31.45438 0 0 1 -1.98163,-3.22408a35.05591,35.05591 0 0 1 -3.22407,-10.14403l-4.5137,0c0,8.25677 5.64606,16.30909 9.86095,20.53971c5.18997,5.28433 13.74556,9.3105 21.20025,9.3105l0,-0.00001z" id="svg_31"/>
      <path stroke="null" class="cls-2" d="m109.505297,34.868905c5.77188,0 4.37216,0.66054 4.95407,-2.50063c2.84662,-15.39692 18.52663,-25.55668 34.26955,-22.14388c1.76144,0.37745 4.24634,1.57272 5.39442,1.57272c0.28309,-1.06945 1.82436,-3.0039 1.90299,-3.99471a5.26861,5.26861 0 0 1 -1.32108,-0.58191c-3.64871,-1.7929 -9.6565,-2.2018 -13.77702,-2.2018a32.28792,32.28792 0 0 0 -19.3759,7.36032a35.32327,35.32327 0 0 0 -6.44815,6.91997c-0.29881,0.4089 -0.50327,0.70772 -0.77063,1.13235c-2.45344,3.9318 -4.82825,9.71941 -4.82825,14.43757z" id="svg_30"/>
      <path stroke="null" class="cls-2" d="m159.533497,15.414365c2.50062,1.32109 3.36562,2.8309 5.25288,4.81252c2.98817,3.14544 6.21224,11.00904 6.21224,16.37201a29.33121,29.33121 0 0 1 -3.60153,15.56992a20.75989,20.75989 0 0 1 -3.49143,4.84397l-0.97509,1.11663a4.71816,4.71816 0 0 1 -0.58191,0.45609a6.08642,6.08642 0 0 0 -0.53472,0.50327a9.32622,9.32622 0 0 1 -2.29617,1.87154a38.97198,38.97198 0 0 0 2.07599,3.99471c1.9659,-0.45609 5.17425,-4.26207 6.55824,-5.94488l2.18608,-3.01962c0.37745,-0.56618 0.69199,-0.99082 1.02227,-1.57272a32.61819,32.61819 0 0 0 0,-32.28793a26.73623,26.73623 0 0 0 -1.95018,-3.14543c-0.4089,-0.56618 -0.67627,-1.00654 -1.08517,-1.57272l-1.19527,-1.41545a14.94083,14.94083 0 0 1 -1.24245,-1.36827a16.52928,16.52928 0 0 0 -4.27779,-3.34989a29.12676,29.12676 0 0 0 -2.07599,4.13625z" id="svg_29"/>
      <path stroke="null" class="cls-2" d="m143.711937,20.462795c4.43507,1.03799 7.31315,1.72999 10.80458,4.81252a18.05482,18.05482 0 0 1 3.44426,4.43507c4.96979,9.97104 0.31454,21.21598 -8.64996,24.5816c-0.53472,0.20445 -1.06945,0.31454 -1.57272,0.55045l0.346,4.5137c3.53862,0 9.12177,-4.21488 11.43367,-7.14014a21.7507,21.7507 0 0 0 3.42853,-5.78761a22.4427,22.4427 0 0 0 -0.44036,-17.97618a14.37465,14.37465 0 0 0 -0.94363,-1.66708a17.29991,17.29991 0 0 0 -1.00654,-1.57272a22.4427,22.4427 0 0 0 -12.66039,-8.52413a24.51869,24.51869 0 0 0 -4.71816,-0.72346l0.53472,4.49798z" id="svg_28"/>
      <path stroke="null" class="cls-2" d="m141.635947,60.221135a32.88556,32.88556 0 0 0 -0.44036,-4.24634c-0.26736,-0.47182 -2.62644,-0.77064 -3.74307,-1.11663c-16.85955,-5.22143 -15.33401,-27.05077 -2.81517,-32.53956c0.88073,-0.37746 1.88727,-0.61336 2.6579,-0.99082c0,-1.33681 -0.40891,-3.14543 -0.519,-4.5137c-2.97244,0 -7.70632,3.25553 -9.76658,5.33152l-2.35908,2.86235c-5.52025,8.14668 -6.03924,18.10199 0.22018,26.45313a22.19107,22.19107 0 0 0 16.76518,8.76005z" id="svg_27"/>
     </g>
    </g>
   </g>
  </g>
 </g>
</svg>