<svg id="Layer_1" data-name="Layer 1" xmlns="http://www.w3.org/2000/svg" viewBox="0 0 219.74 55.15"><defs><style>.cls-1{fill:#808285;}.cls-1,.cls-3{fill-rule:evenodd;}.cls-2,.cls-3{fill:#e11837;}</style></defs><title>simi</title><path class="cls-1" d="M427.73,181.47c0.87,0.48,1.81,1,1.81,2.35,0,1.78-1.41,2.4-3,2.4a8.93,8.93,0,0,1-2-.26v-1a5.52,5.52,0,0,0,2.07.44,1.58,1.58,0,0,0,1.85-1.46c0-1-.72-1.32-1.42-1.72l-0.75-.42c-0.79-.45-1.84-0.92-1.84-2.22,0-1.47,1.17-2.19,2.74-2.19a8.35,8.35,0,0,1,1.78.22v1a5.09,5.09,0,0,0-1.87-.37,1.38,1.38,0,0,0-1.61,1.3c0,0.76.76,1.15,1.42,1.52Z" transform="translate(-279.51 -147.13)"/><path class="cls-1" d="M430.74,177.55h1.12v1.11h-1.12v-1.11h0Zm0.14,2.65h0.84v5.89h-0.84V180.2Z" transform="translate(-279.51 -147.13)"/><path class="cls-1" d="M435.56,182.76a1.88,1.88,0,0,1,1.37,1.68c0,1.18-.82,1.78-2.19,1.78a5.51,5.51,0,0,1-1.6-.25v-0.77a5,5,0,0,0,1.52.31c0.81,0,1.44-.27,1.44-1A1.51,1.51,0,0,0,435,183.5l-0.53-.28a1.87,1.87,0,0,1-1.33-1.59c0-1,.7-1.56,2-1.56a5.73,5.73,0,0,1,1.39.2V181a4.22,4.22,0,0,0-1.37-.27,1,1,0,0,0-1.19.76,1.43,1.43,0,0,0,1.07.93Z" transform="translate(-279.51 -147.13)"/><path class="cls-1" d="M440.9,186.16a5.1,5.1,0,0,1-.74.06c-1.19,0-1.63-.47-1.63-1.52v-3.8h-1v-0.7h1v-1.37l0.84-.53v1.91h1.59v0.7h-1.59v3.63a0.87,0.87,0,0,0,1,1,1.46,1.46,0,0,0,.57-0.11v0.75Z" transform="translate(-279.51 -147.13)"/><path class="cls-1" d="M445.93,186.05a4.56,4.56,0,0,1-1.35.17c-1.82,0-2.87-1.1-2.87-3.28,0-1.76.73-2.88,2.3-2.88a2,2,0,0,1,2.06,2.24v0.28h-3.39v0.34c0,0.89.4,2.59,2.09,2.59a3.85,3.85,0,0,0,1.16-.16v0.69h0Zm-0.83-4.17a1.09,1.09,0,0,0-1.12-1.11,1.24,1.24,0,0,0-1.24,1.11h2.36Z" transform="translate(-279.51 -147.13)"/><path class="cls-1" d="M447.46,180.2h0.84v1.36h0a1.73,1.73,0,0,1,1.64-1.5,1.34,1.34,0,0,1,1.49,1.35h0a1.83,1.83,0,0,1,1.67-1.35,1.59,1.59,0,0,1,1.51,1.82v4.21h-0.84v-3.27c0-1,0-1.92-.87-1.92s-1.47,1.7-1.47,2.76v2.42h-0.84v-3.27c0-1,0-1.92-.87-1.92s-1.47,1.69-1.47,2.76v2.42h-0.84V180.2Z" transform="translate(-279.51 -147.13)"/><path class="cls-1" d="M459.46,185.31h0a2,2,0,0,1-1.81.91,1.48,1.48,0,0,1-1.58-1.64c0-1.38,1.78-1.83,2.8-1.83a3,3,0,0,0,.58,0,10.58,10.58,0,0,0,0-1.13,1,1,0,0,0-1.07-.81,1,1,0,0,0-1.2.94h-0.94c0-.74.51-1.64,2.12-1.64,1.83,0,2,1.15,2,1.89v4.13h-0.82v-0.78h0Zm-0.52-1.89c-0.61,0-1.93.25-1.93,1.25a0.81,0.81,0,0,0,.83.85,1.56,1.56,0,0,0,1.37-.92,2.24,2.24,0,0,0,.22-1.19h-0.5Z" transform="translate(-279.51 -147.13)"/><polygon class="cls-1" points="184.95 30.42 186.4 30.42 188.82 37.68 188.85 37.68 191.27 30.42 192.71 30.42 192.71 38.96 191.84 38.96 191.84 31.45 191.81 31.45 189.3 38.96 188.35 38.96 185.84 31.45 185.81 31.45 185.81 38.96 184.95 38.96 184.95 30.42"/><path class="cls-1" d="M474.06,177.55h1.12v1.11h-1.12v-1.11h0Zm0.14,2.65H475v5.89H474.2V180.2Z" transform="translate(-279.51 -147.13)"/><path class="cls-1" d="M477,180.2h0.84v1.36h0a1.86,1.86,0,0,1,1.85-1.5,1.59,1.59,0,0,1,1.5,1.82v4.21h-0.84v-3.27c0-1,0-1.92-.87-1.92-1.11,0-1.67,1.69-1.67,2.76v2.42H477V180.2Z" transform="translate(-279.51 -147.13)"/><path class="cls-1" d="M486.86,186.05a4.51,4.51,0,0,1-1.35.17c-1.82,0-2.87-1.1-2.87-3.28,0-1.76.73-2.88,2.3-2.88A2,2,0,0,1,487,182.3v0.28h-3.39v0.34c0,0.89.39,2.59,2.09,2.59a3.83,3.83,0,0,0,1.16-.16v0.69h0ZM486,181.88a1.09,1.09,0,0,0-1.12-1.11,1.24,1.24,0,0,0-1.23,1.11H486Z" transform="translate(-279.51 -147.13)"/><path class="cls-1" d="M488.28,177.55h1.11v1.11h-1.11v-1.11h0Zm0.14,2.65h0.84v5.89h-0.84V180.2Z" transform="translate(-279.51 -147.13)"/><path class="cls-1" d="M491.15,180.2H492v1.14h0a2,2,0,0,1,2-1.28V181c-1.34,0-2,1.1-2,2.69v2.44h-0.84V180.2Z" transform="translate(-279.51 -147.13)"/><path class="cls-1" d="M494.43,183.16c0-1.72.66-3.09,2.4-3.09s2.42,1.37,2.42,3.09-0.68,3.07-2.42,3.07-2.4-1.35-2.4-3.07h0Zm2.4,2.36c1,0,1.46-.89,1.46-2.38s-0.49-2.37-1.46-2.37-1.43.9-1.43,2.37S495.88,185.52,496.83,185.52Z" transform="translate(-279.51 -147.13)"/><path class="cls-1" d="M428.12,196.63h0a1.6,1.6,0,0,1-1.53,1.14c-1.42,0-2-1.16-2-3,0-1.58.55-3.13,2-3.13a1.53,1.53,0,0,1,1.55,1.1h0V189.1H429v8.53h-0.84v-1h0Zm-1.38.43c1,0,1.38-1.34,1.38-2.35,0-1.31-.47-2.4-1.36-2.4s-1.25,1.33-1.25,2.59C425.51,195.65,425.62,197.07,426.74,197.07Z" transform="translate(-279.51 -147.13)"/><path class="cls-1" d="M434.63,197.6a4.59,4.59,0,0,1-1.35.17c-1.82,0-2.87-1.1-2.87-3.28,0-1.76.73-2.88,2.3-2.88a2,2,0,0,1,2.05,2.24v0.28h-3.39v0.35c0,0.89.39,2.59,2.09,2.59a3.9,3.9,0,0,0,1.17-.16v0.69h0Zm-0.83-4.17a1.09,1.09,0,0,0-1.12-1.11,1.25,1.25,0,0,0-1.24,1.11h2.36Z" transform="translate(-279.51 -147.13)"/><rect class="cls-2" x="158.83" y="41.97" width="1.44" height="8.54"/><path class="cls-3" d="M441.51,191.75h1.37v1.1h0a1.85,1.85,0,0,1,1.74-1.24c0.87,0,1.59.59,1.59,1.94v4.09h-1.37v-3.37c0-1.2-.13-1.37-0.61-1.37-0.93,0-1.39,1.26-1.39,2.19v2.55h-1.37v-5.89Z" transform="translate(-279.51 -147.13)"/><path class="cls-3" d="M447.58,194.69c0-1.93.9-3.08,2.6-3.08s2.6,1.15,2.6,3.08-0.91,3.08-2.6,3.08-2.6-1.15-2.6-3.08h0Zm2.6,2.12c1,0,1.14-1,1.14-2.12s-0.14-2.11-1.14-2.11-1.14,1-1.14,2.11S449.18,196.8,450.17,196.8Z" transform="translate(-279.51 -147.13)"/><polygon class="cls-3" points="173.75 44.62 175.18 44.62 176.49 48.65 176.51 48.65 177.84 44.62 179.27 44.62 177.17 50.5 175.84 50.5 173.75 44.62"/><path class="cls-3" d="M462.61,197h0a1.53,1.53,0,0,1-1.54.81,1.57,1.57,0,0,1-1.73-1.55c0-2,2.48-2,3.29-2v-0.58a0.86,0.86,0,0,0-.83-1.07,0.81,0.81,0,0,0-.9.9h-1.34c0-1.13.74-1.87,2.24-1.87s2.14,0.63,2.14,1.83v4.19h-1.31V197h0Zm-1.23-.15c0.89,0,1.23-1,1.23-1.77-0.89,0-2,.27-2,1.06A0.64,0.64,0,0,0,461.38,196.8Z" transform="translate(-279.51 -147.13)"/><path class="cls-3" d="M467.1,197.58c-1.14-.38-1.92-1.36-1.92-3.15a2.53,2.53,0,0,1,2.7-2.82,2,2,0,0,1,2.23,2.15h-1.45a1,1,0,0,0-.89-1.19c-0.76,0-1.12.72-1.12,1.61a2.39,2.39,0,0,0,2.43,2.62,2.93,2.93,0,0,0,1-.15v0.84a5.77,5.77,0,0,1-1.72.27,4.48,4.48,0,0,1-.57,0l-0.16.7h0.18a1.12,1.12,0,0,1,1.2,1.13,1.26,1.26,0,0,1-1.43,1.26,1.75,1.75,0,0,1-.93-0.26v-0.78a1.43,1.43,0,0,0,.83.32,0.53,0.53,0,0,0,.54-0.54,0.77,0.77,0,0,0-.9-0.67,1.16,1.16,0,0,0-.31,0Z" transform="translate(-279.51 -147.13)"/><path class="cls-3" d="M474.05,197h0a1.53,1.53,0,0,1-1.54.81,1.57,1.57,0,0,1-1.73-1.55c0-2,2.48-2,3.3-2v-0.58a0.86,0.86,0,0,0-.83-1.07,0.81,0.81,0,0,0-.9.9H471c0-1.13.74-1.87,2.24-1.87s2.14,0.63,2.14,1.83v4.19h-1.31V197h0Zm-2.58-6.35c0-1.13.15-1.7,0.83-1.7a2.1,2.1,0,0,1,.93.41,2.68,2.68,0,0,0,.72.41c0.17,0,.21-0.15.21-0.71h0.73c0,1.19-.1,1.7-0.84,1.7s-1.35-.75-1.64-0.75-0.21.12-.21,0.64h-0.73Zm1.35,6.2c0.89,0,1.23-1,1.23-1.77-0.89,0-2,.27-2,1.06A0.65,0.65,0,0,0,472.82,196.8Z" transform="translate(-279.51 -147.13)"/><path class="cls-3" d="M476.64,194.69c0-1.93.91-3.08,2.6-3.08s2.6,1.15,2.6,3.08-0.9,3.08-2.6,3.08-2.6-1.15-2.6-3.08h0Zm2.6,2.12c1,0,1.14-1,1.14-2.12s-0.15-2.11-1.14-2.11-1.14,1-1.14,2.11S478.25,196.8,479.24,196.8Z" transform="translate(-279.51 -147.13)"/><path class="cls-3" d="M327.14,179.4a8.15,8.15,0,0,1-1.58-11.83h0A12.42,12.42,0,0,0,322,148.74l-0.21-.12c-0.24-.13-0.49-0.25-0.75-0.36l-0.49-.21-0.5-.19c-0.26-.09-0.52-0.18-0.79-0.25l-0.24-.06a12.43,12.43,0,0,0-15.57,11.14h0a8.18,8.18,0,0,1-9.48,7.46v0a12.46,12.46,0,1,0,3.41,23.49h0a8.17,8.17,0,0,1,11.2,4.48h0a12.46,12.46,0,1,0,18.53-14.72h0Zm-3.55,14.38a3.74,3.74,0,0,1-3.71.53L289.16,182a3.74,3.74,0,0,1-.92-6.41l26-20.44a3.74,3.74,0,0,1,6,2.41L325,190.31A3.75,3.75,0,0,1,323.59,193.79Z" transform="translate(-279.51 -147.13)"/><path class="cls-1" d="M364.3,197.69h4.87v-34H364.3v34h0Zm26.57-20.86-9.6-13.12h-4.65v34h4.87V171.24l8.9,12.3h0.9l8.83-12.3v26.45H405v-34h-4.58l-9.58,13.12h0Zm21.5,20.86h4.87v-34h-4.87v34h0Zm-60.72-17.11-3.7-2.25q-4.48-2.78-4.48-5.89a4,4,0,0,1,1.52-3.19,5.73,5.73,0,0,1,3.82-1.28h9V163.7h-9.17a10,10,0,0,0-7,2.55,8.65,8.65,0,0,0-2.74,6.64q0,5.74,6.22,9.46l3.72,2.2a14.3,14.3,0,0,1,3.64,2.8,4.31,4.31,0,0,1,1.13,2.85,3.34,3.34,0,0,1-1.53,2.82,6.58,6.58,0,0,1-3.92,1.1,10.79,10.79,0,0,1-7-2.7,20.73,20.73,0,0,1-.91,4.7,13.68,13.68,0,0,0,7.78,2.38A10.45,10.45,0,0,0,355.3,196a8.37,8.37,0,0,0,2.79-6.52,7.88,7.88,0,0,0-1.47-4.74A16.81,16.81,0,0,0,351.66,180.58Z" transform="translate(-279.51 -147.13)"/></svg>