<svg id="Layer_1" data-name="Layer 1" xmlns="http://www.w3.org/2000/svg" viewBox="0 0 230.14 38.16"><defs><style>.cls-1,.cls-7{fill:#303331;}.cls-1,.cls-2,.cls-3,.cls-4,.cls-5,.cls-6{fill-rule:evenodd;}.cls-2{fill:#d44445;}.cls-3{fill:#f48b8f;}.cls-4{fill:#acadae;}.cls-5{fill:#f9c2ca;}.cls-6{fill:#e65e61;}</style></defs><title>bigdata</title><path class="cls-1" d="M35.8,102.39c-7.16,0-6.84.08-6.84-6.31,0-2.71,4.58-2.24,6.84-2.24,4.84,0,4.6,1.76,4.6,5.45,0,2.71-2.31,3.1-4.6,3.1h0Zm-9.09-5.13c0,1.89-.14,4,1.15,5.37a4.51,4.51,0,0,0,3.45,1.47c2,0,6.33.26,7.81-.42a2.26,2.26,0,0,0,1-.9l0.26-.38c0,1.42.12,2.86-.43,3.74a3.38,3.38,0,0,1-3,1.18H32c-1.21,0-2.78-.58-2.78-1.71V105h-2a3.39,3.39,0,0,0,1.43,3.27,5.38,5.38,0,0,0,3.06.9h5.24c2.74,0,5.66-1.17,5.66-4.06V92.23c-2.21,0-2-.17-2,0.74,0,0.4,0,.79,0,1.19A0.49,0.49,0,0,1,40.37,94a3.26,3.26,0,0,0-1.08-1.27,3.87,3.87,0,0,0-2.09-.58H31.85C28.49,92.13,26.71,93.89,26.71,97.26Z" transform="translate(-1.7 -70.96)"/><path class="cls-1" d="M67,101.53c0-1.36-.24-2.57,2.24-2.57h6c3.18,0,2.89,1.34,2.89,2.67,0,1.84-5.47,1.5-7.16,1.5s-4,.09-4-1.6h0Zm-1.6-6.73V96h2.14c0-.94-0.12-1.78,1.52-2s6.65-.18,7.91.28c1.53,0.56,1.16,2.19,1.16,4.19a1,1,0,0,1-.28-0.25l-0.33-.32a4.69,4.69,0,0,0-2.81-.71c-2.27,0-7-.3-8.66.64-2,1.17-1.29,5.09-.57,5.91a3.33,3.33,0,0,0,2.7,1.15c1.78,0,7.52.21,8.81-.28a2.63,2.63,0,0,0,1.13-.9c0,1.26-.34,1.07,1.92,1.07a0.26,0.26,0,0,0,.32-0.32V96.51c0-3.3-2.17-4.38-5.45-4.38-2.21,0-6.39-.28-8.09.57A2.38,2.38,0,0,0,65.41,94.8Z" transform="translate(-1.7 -70.96)"/><path class="cls-1" d="M99.72,101.21a1.91,1.91,0,0,1,.67-1.9c1.12-.58,5.81-0.35,7.46-0.35,2.48,0,3.1.61,3.1,2.35,0,2.05-3.18,1.63-4.3,1.79a32.94,32.94,0,0,1-5.64-.18,1.47,1.47,0,0,1-1.28-1.72h0Zm-1.6-6.09V96h2.14c0-2.12,1.2-2.14,4.17-2.14,1.5,0,4.32,0,5.35.43,1.55,0.64,1.17,2.51,1.17,4.28a3.64,3.64,0,0,0-3.31-1.39h-5.56c-4.59,0-4.49,1.8-4.49,4.38a3.05,3.05,0,0,0,3.21,3.31c1.83,0,7.82.23,9.09-.32a1.6,1.6,0,0,0,.56-0.4l0.5-.57c0,1.37-.33,1.18,1.82,1.18a0.26,0.26,0,0,0,.32-0.32V96.08c0-2.94-2.38-4-5.34-4-2.19,0-6.67-.3-8.33.64A2.66,2.66,0,0,0,98.12,95.12Z" transform="translate(-1.7 -70.96)"/><path class="cls-1" d="M48,99.72c0-2.38-.4-4.66,1.57-5.49,0.91-.38,8-1,9.3.72,0.87,1.14.57,3.32,0.57,5.2,0,3.45-4.13,3-6.73,3-2.95,0-4.7-.35-4.7-3.42h0Zm11.44-6.09a3.35,3.35,0,0,0-3.1-1.5c-2.9,0-7-.41-9,1.08s-1.51,4.45-1.51,7c0,3.05,2.42,4.6,5.56,4.6,2.11,0,5,.25,6.74-0.53a3.38,3.38,0,0,0,.83-0.56,2.19,2.19,0,0,0,.34-0.4l0.32-.43c0,0.36,0,.72,0,1.08,0,0.89-.14.74,1.72,0.74a0.26,0.26,0,0,0,.32-0.32V87.1c-2.8,0-2.24-.59-2.24,3.1v3.42Z" transform="translate(-1.7 -70.96)"/><path class="cls-2" d="M231.53,71.24c-0.23.68-3.86,6.77-4.32,7.59-0.59,1-4.19,7-4.23,7.63,0.54,2.76.94,5.64,1.5,8.44l1.49,8.45,0.44-1.91c0.11-.63.24-1.29,0.37-2,0.26-1.43.49-2.68,0.72-4.09,0.88-5.36,2-10.81,2.85-16.17,0.15-.94,1.39-7.44,1.39-8.13Z" transform="translate(-1.7 -70.96)"/><path class="cls-3" d="M215.06,76.95a9,9,0,0,1-1.67.68l-8.93,3.26a20.78,20.78,0,0,0-3.51,1.41h17.32l13.27-11.05,0.2-.18,0.11-.1h-0.28a1.05,1.05,0,0,1-.3.17l-1.8.66-2,.74C225.82,73.1,215.73,76.91,215.06,76.95Z" transform="translate(-1.7 -70.96)"/><path class="cls-1" d="M3.84,99.82c0-5.05-.41-6,6.09-6a13.78,13.78,0,0,1,3.79.38c2,0.75,1.56,3.39,1.56,5.92,0,3.47-3.68,3-6.84,3-2.71,0-4.6-.59-4.6-3.31h0ZM1.7,104.74c2.45,0,2,.36,2-1.71a4.42,4.42,0,0,0,3.74,1.82c5.14,0,10,.83,10-5.56,0-2.07.11-4.49-1.25-5.8-1.88-1.81-6.12-1.36-9.12-1.36A3.32,3.32,0,0,0,4,93.54a0.77,0.77,0,0,1-.13.19V87.1H1.7v17.64Z" transform="translate(-1.7 -70.96)"/><path class="cls-4" d="M188.55,103.14c-1.58,0-4.41.14-5.6-.5-1.79-1-1.35-3.29-1.35-5.7a2.88,2.88,0,0,1,1.32-2.52c1.31-.78,3.85-0.58,5.41-0.58,5.13,0,4.7,1.47,4.7,6,0,2.92-1.62,3.31-4.49,3.31h0Zm-7.16-9.09c0-2.14.4-1.82-1.71-1.82a0.26,0.26,0,0,0-.32.32v16.14c0,0.5.66,0.32,1.92,0.32,0.53,0,.32-1.66.32-2.67v-3l0.46,0.61a1.45,1.45,0,0,0,.61.46,3.9,3.9,0,0,0,1.82.42c2,0,5.93.19,7.61-.31,3.65-1.07,3.08-4.4,3.08-7.82a4.78,4.78,0,0,0-1.43-3.38,5.78,5.78,0,0,0-3.7-1.22c-2.35,0-5.38-.29-7.16.53C181.75,93.19,181.83,93.72,181.39,94.05Z" transform="translate(-1.7 -70.96)"/><path class="cls-5" d="M215.06,76.95c0.68,0,10.76-3.85,12.36-4.42l2-.74,1.8-.66a1.05,1.05,0,0,0,.3-0.17H198.92a2,2,0,0,0,.87.41l5.1,1.85c0.64,0.24,1.34.52,2,.75,1.34,0.44,2.7,1,4.06,1.5Z" transform="translate(-1.7 -70.96)"/><path class="cls-6" d="M218.26,82.3a12.49,12.49,0,0,1-.31,2.14c-0.14.72-.26,1.42-0.39,2.17-0.19,1.06-2.11,12.51-2.29,12.89a3.63,3.63,0,0,0,1-1.53c0.32-.59.59-1.05,0.94-1.63l5.69-9.82,0-.06c0-.65,3.64-6.59,4.23-7.63,0.47-.82,4.09-6.92,4.32-7.59Z" transform="translate(-1.7 -70.96)"/><path class="cls-4" d="M146,99.93c0-5.8-.22-6.09,7.16-6.09,5.66,0,5.13,1.5,5.13,6.2,0,3.73-4.05,3.1-7.59,3.1-2.46,0-4.7-.25-4.7-3.21h0Zm-2.14-3.53c0,3.1-.53,5.85,1.77,7.42,2,1.39,6.27,1,9,1a6.79,6.79,0,0,0,4.41-1.36c1.6-1.55,1.47-3.12,1.47-5.59,0-6.57-4.74-5.77-10.69-5.77C146.91,92.13,143.87,93.34,143.87,96.4Z" transform="translate(-1.7 -70.96)"/><path class="cls-4" d="M125.8,96.72c0,2.72-.4,5.11,1.31,6.82a4.5,4.5,0,0,0,3.4,1.31h6.09c3.14,0,4.6-1.6,4.6-4.7h-2c0,3.44-3.11,3-6.2,3a7.56,7.56,0,0,1-3.82-.67c-1.41-.83-1.2-3-1.2-4.78,0-4.28,2.31-3.85,6.52-3.85,3,0,4.43.18,4.49,2.89,2.22,0,2.11.16,2-.77-0.25-1.63-.65-2.72-2.46-3.43-1.57-.62-5.37-0.39-7.3-0.39a6.18,6.18,0,0,0-3.82,1.1A4.6,4.6,0,0,0,125.8,96.72Z" transform="translate(-1.7 -70.96)"/><path class="cls-1" d="M85,89.67v2.57c-3.22,0-2.67-.47-2.67,1.82H85v6.2c0,5,3.31,4.6,6.95,4.6a4.34,4.34,0,0,0,2.81-.93c1.28-1.24,1-2.6,1-4.63,0-.47-0.45-0.32-1.5-0.32-0.76,0,.06,2-0.6,3.25-0.48.88-2,.92-3,0.92-2,0-3.42-.4-3.42-2.46V94.05h8.23c0-1.22.17-1.82-.32-1.82H87.22V89.35C85.81,89.35,85,89.14,85,89.67Z" transform="translate(-1.7 -70.96)"/><path class="cls-4" d="M166.1,93.94c0-.32,0-0.65,0-1,0-.89.14-0.74-1.72-0.74a0.26,0.26,0,0,0-.32.32v11.86c0,0.52.78,0.32,2.14,0.32V97c0-2.26,1.51-3.21,3.53-3.21a20.81,20.81,0,0,1,3.78.28c1.63,0.47,1.45,2.17,1.45,3.78h2c0-2.68.23-5.77-4.38-5.77-2.68,0-5-.45-6.39,1.63A0.77,0.77,0,0,1,166.1,93.94Z" transform="translate(-1.7 -70.96)"/><path class="cls-1" d="M21,104.74c1.36,0,2.14.2,2.14-.32V92.55c0-.52-0.78-0.32-2.14-0.32v12.51Z" transform="translate(-1.7 -70.96)"/><path class="cls-4" d="M198.81,104.42a0.26,0.26,0,0,0,.32.32h2.46v-3.1h-2.78v2.78Z" transform="translate(-1.7 -70.96)"/><rect class="cls-7" x="19.35" y="16.14" width="2.14" height="2.35"/></svg>