<svg id="Layer_1" data-name="Layer 1" xmlns="http://www.w3.org/2000/svg" viewBox="0 0 115.07 62.08"><defs><style>.cls-1{fill:#000002;fill-rule:evenodd;}</style></defs><title>mit</title><path class="cls-1" d="M54.66,205.47V179H28.19V152.48H1.7v-8.82H37v26.49H63.51v35.31H54.66Zm-53-35.31v35.31H37v-8.82H10.52V170.16H1.7Zm70.62,8.32H75v-4.66a2.07,2.07,0,0,1,.34-1.21,1.16,1.16,0,0,1,1-.47,1.11,1.11,0,0,1,.9.37,1.71,1.71,0,0,1,.28,1.06v4.94h2.64v-4.66a2.07,2.07,0,0,1,.34-1.21,1.12,1.12,0,0,1,1-.47,1.11,1.11,0,0,1,.9.37,1.71,1.71,0,0,1,.28,1.06v4.94h2.64v-5.47A4.06,4.06,0,0,0,85,171.8a3,3,0,0,0-.53-1,2.41,2.41,0,0,0-.9-0.65,3.16,3.16,0,0,0-1.24-.22,2.9,2.9,0,0,0-2.61,1.46h0a2.52,2.52,0,0,0-2.36-1.49,2.59,2.59,0,0,0-1.52.4,3,3,0,0,0-1,1.06H74.78v-1.18H72.23v8.29h0.09ZM86.43,169h2.64v-2.14H86.43V169h0Zm0,9.47h2.64v-8.32H86.43v8.32h0Zm8.17,0.06a5.1,5.1,0,0,0,.56-0.09v-1.93H94.56a1.48,1.48,0,0,1-.68-0.16,0.76,0.76,0,0,1-.25-0.65V171.8h1.52v-1.65H93.63v-2.64H91.05v2.64H89.94v1.65h1.12v4.47a3,3,0,0,0,.19,1.12,1.61,1.61,0,0,0,.56.71,2,2,0,0,0,.84.37,5.56,5.56,0,0,0,1.06.09,7.55,7.55,0,0,0,.9,0h0ZM72.33,191.12H75v-4.66a2.07,2.07,0,0,1,.34-1.21,1.16,1.16,0,0,1,1-.47,1.11,1.11,0,0,1,.9.37,1.71,1.71,0,0,1,.28,1.06v4.94h2.64v-4.66a2.07,2.07,0,0,1,.34-1.21,1.12,1.12,0,0,1,1-.47,1.11,1.11,0,0,1,.9.37,1.71,1.71,0,0,1,.28,1.06v4.94h2.64v-5.44a4.06,4.06,0,0,0-.19-1.27,3,3,0,0,0-.53-1,2.41,2.41,0,0,0-.9-0.65,3.16,3.16,0,0,0-1.24-.22,3.26,3.26,0,0,0-1.46.34,3,3,0,0,0-1.15,1.12h0a2.52,2.52,0,0,0-2.36-1.49,2.59,2.59,0,0,0-1.52.4,3,3,0,0,0-1,1.06H74.78V182.8H72.23v8.32h0.09Zm19.57,0a3.59,3.59,0,0,0,1.15-.56,3.48,3.48,0,0,0,1.4-2H91.86a1.46,1.46,0,0,1-.53.62,1.51,1.51,0,0,1-.87.22,1.55,1.55,0,0,1-1.27-.5,2.42,2.42,0,0,1-.59-1.34h6a7.05,7.05,0,0,0-.34-2.33,4.21,4.21,0,0,0-1.12-1.74,4,4,0,0,0-1.24-.78,4.29,4.29,0,0,0-1.61-.28,4.45,4.45,0,0,0-1.74.34,4,4,0,0,0-2.24,2.33A4.56,4.56,0,0,0,86,186.9a4.83,4.83,0,0,0,.31,1.77,4,4,0,0,0,.87,1.4,3.68,3.68,0,0,0,1.4.93,5.1,5.1,0,0,0,1.86.34,3.63,3.63,0,0,0,1.46-.19h0Zm-3.26-5.09a2.45,2.45,0,0,1,.53-1.18,1.57,1.57,0,0,1,1.18-.43,1.55,1.55,0,0,1,1.09.43,2,2,0,0,1,.5,1.18H88.63ZM100.37,191a2.86,2.86,0,0,0,1-1h0v1.12h2.55V179.44H101.3v4.29h-0.06a3.3,3.3,0,0,0-.9-0.84,2.78,2.78,0,0,0-1.43-.34,3.39,3.39,0,0,0-1.49.34,3.61,3.61,0,0,0-1.15.9,4.26,4.26,0,0,0-.75,1.4,5.62,5.62,0,0,0-.28,1.8,5.87,5.87,0,0,0,.28,1.86,4.27,4.27,0,0,0,.75,1.4,3.14,3.14,0,0,0,1.15.87,3.72,3.72,0,0,0,1.46.31,3.65,3.65,0,0,0,1.49-.43h0Zm-2-2.36a3.13,3.13,0,0,1-.43-1.74,3.09,3.09,0,0,1,.43-1.71,1.53,1.53,0,0,1,2-.47,1.35,1.35,0,0,1,.53.5,1.94,1.94,0,0,1,.31.78,4.83,4.83,0,0,1,.09,1,2.82,2.82,0,0,1-.47,1.68,1.51,1.51,0,0,1-1.3.65,1.33,1.33,0,0,1-1.15-.65h0Zm6.62-7h2.64v-2.14H105v2.14h0Zm0,9.5h2.64V182.8H105v8.32h0Zm7.92-.09a3.13,3.13,0,0,0,1-.84h0a2.49,2.49,0,0,0,.12.56,1,1,0,0,0,.16.37h2.58V191a0.65,0.65,0,0,1-.25-0.4,4.9,4.9,0,0,1-.06-0.78v-4.19a3.87,3.87,0,0,0-.25-1.4,2.3,2.3,0,0,0-.81-1,3.73,3.73,0,0,0-1.12-.53,5.94,5.94,0,0,0-1.58-.16,5.28,5.28,0,0,0-1.65.22,3.28,3.28,0,0,0-1.18.62,2.49,2.49,0,0,0-.71.9,2.68,2.68,0,0,0-.25,1.12h2.45a1.19,1.19,0,0,1,.4-0.81,1.43,1.43,0,0,1,1-.28,1.32,1.32,0,0,1,.87.25,0.8,0.8,0,0,1,.28.65,0.59,0.59,0,0,1-.47.59,7.7,7.7,0,0,1-1.65.31,8,8,0,0,0-1.24.25,3.08,3.08,0,0,0-1,.47,2.07,2.07,0,0,0-.68.78,2.52,2.52,0,0,0-.25,1.15,2.43,2.43,0,0,0,.22,1.09,2.59,2.59,0,0,0,.59.81,2.81,2.81,0,0,0,.9.5,3.43,3.43,0,0,0,1.15.16,3,3,0,0,0,1.49-.28h0Zm-1.49-1.61a0.79,0.79,0,0,1-.31-0.71,0.84,0.84,0,0,1,.34-0.71,3.42,3.42,0,0,1,1.12-.4l0.75-.19a2.86,2.86,0,0,0,.62-0.25v1a1.37,1.37,0,0,1-.47,1.09,1.73,1.73,0,0,1-1.21.4,1.41,1.41,0,0,1-.84-0.22h0Zm-39.1,16.06H75V193.82H72.33v11.65h0Zm8-.09a2.77,2.77,0,0,0,1-.84h0a2.48,2.48,0,0,0,.12.56,1,1,0,0,0,.16.37h2.58v-0.12a0.65,0.65,0,0,1-.25-0.4,4.88,4.88,0,0,1-.06-0.78V200a3.87,3.87,0,0,0-.25-1.4,2.3,2.3,0,0,0-.81-1,3.07,3.07,0,0,0-1.12-.5,5.83,5.83,0,0,0-1.58-.19,5.28,5.28,0,0,0-1.65.22,2.9,2.9,0,0,0-1.15.62,2.49,2.49,0,0,0-.71.9,2.68,2.68,0,0,0-.25,1.12h2.45a1.19,1.19,0,0,1,.4-0.81,1.43,1.43,0,0,1,1-.28,1.32,1.32,0,0,1,.87.25,0.8,0.8,0,0,1,.28.65,0.59,0.59,0,0,1-.47.59,7.69,7.69,0,0,1-1.65.31,8,8,0,0,0-1.24.25,3.08,3.08,0,0,0-1,.47,2.07,2.07,0,0,0-.68.78,2.52,2.52,0,0,0-.25,1.15,2.43,2.43,0,0,0,.22,1.09,2.58,2.58,0,0,0,.59.81,2.81,2.81,0,0,0,.9.5,4.48,4.48,0,0,0,1.15.16,3.07,3.07,0,0,0,1.46-.28h0Zm-1.49-1.62a0.8,0.8,0,0,1-.34-0.71,0.84,0.84,0,0,1,.34-0.71,2.83,2.83,0,0,1,1.12-.4,4.25,4.25,0,0,0,.75-0.22,2.89,2.89,0,0,0,.62-0.25v1a1.36,1.36,0,0,1-.47,1.09,1.73,1.73,0,0,1-1.21.4,1.13,1.13,0,0,1-.81-0.19h0Zm12.76,1.65a3,3,0,0,0,1.12-.87,3.72,3.72,0,0,0,.71-1.4,7,7,0,0,0,.25-1.86,6.2,6.2,0,0,0-.25-1.74,4.26,4.26,0,0,0-.71-1.4,3.22,3.22,0,0,0-1.12-.93,3.36,3.36,0,0,0-2.89,0,3.19,3.19,0,0,0-1,.87H87.67v-4.26H85v11.68h2.55v-1.06h0a2.5,2.5,0,0,0,1.06,1,3.29,3.29,0,0,0,1.49.34,3.72,3.72,0,0,0,1.43-.34h0ZM88.07,203a2.82,2.82,0,0,1-.47-1.68A3.24,3.24,0,0,1,88,199.6a1.55,1.55,0,0,1,2.55,0,3.14,3.14,0,0,1,.4,1.74,3,3,0,0,1-.4,1.71,1.4,1.4,0,0,1-1.21.62A1.51,1.51,0,0,1,88.07,203Z" transform="translate(-1.7 -143.66)"/></svg>