<svg width="250" height="250" xmlns="http://www.w3.org/2000/svg">
 <defs>
  <style>.cls-1,.cls-3{fill:#383017;}.cls-1,.cls-2{fill-rule:evenodd;}.cls-2{fill:#e69d24;}</style>
 </defs>
 <title>datawheel</title>
 <g>
  <title>background</title>
  <rect fill="none" id="canvas_background" height="252" width="252" y="-1" x="-1"/>
 </g>
 <g>
  <title>Layer 1</title>
  <g stroke="null" id="svg_22">
   <g stroke="null" id="svg_20">
    <path stroke="null" id="svg_1" d="m16.907021,186.935868l-3.648708,0l0,-25.163506c4.497977,0 10.175493,-0.141545 13.666929,2.484896c6.023514,4.497977 6.039241,15.978826 0.597633,20.303804c-2.547805,2.028808 -6.149332,2.40626 -10.615854,2.40626l0,0l0,-0.031454zm-8.854409,5.410154c4.938338,0 14.233108,0.424634 18.47945,-0.975086a13.60402,13.60402 0 0 0 7.187326,-5.48879a21.656342,21.656342 0 0 0 1.572719,-19.863442a15.569919,15.569919 0 0 0 -9.326224,-8.555592c-4.576613,-1.462629 -12.660389,-1.053722 -17.866089,-1.053722l0,35.936632l-0.047182,0z" class="cls-1"/>
    <path stroke="null" id="svg_2" d="m122.939743,192.314567l2.091716,0l5.944878,-14.154472a5.677516,5.677516 0 0 1 0.990813,-1.950172a7.297417,7.297417 0 0 0 0.739178,2.028808c0.298817,0.707724 0.534724,1.321084 0.817814,1.965899l5.032701,12.157119l2.075989,0a23.008881,23.008881 0 0 1 1.321084,-3.365619l9.68795,-23.968239l-5.378699,0l-1.572719,4.08907c-0.487543,1.210994 -4.529431,11.779666 -5.127064,12.235755a7.265962,7.265962 0 0 0 -0.739178,-2.028808l-5.929151,-14.296017l-1.90299,0c-0.927904,1.39972 -6.290876,15.491283 -6.951418,16.324824l-6.070696,-15.459829c-0.487543,-1.28963 -0.314544,-0.864996 -5.221427,-0.864996c-0.597633,0 -0.629088,-0.094363 0,1.258175l2.091716,5.2057c0.959359,2.374806 1.7929,4.560885 2.752258,6.967146l4.120524,10.30131a27.947219,27.947219 0 0 1 1.226721,3.554345z" class="cls-1"/>
    <path stroke="null" id="svg_3" d="m220.228147,169.746048a8.036595,8.036595 0 0 1 5.142791,1.572719a6.715511,6.715511 0 0 1 2.500623,3.758799l-14.579106,0a7.297417,7.297417 0 0 1 6.935691,-5.331518l0,0zm-13.022114,9.027408a15.444102,15.444102 0 0 0 3.522891,9.672223c3.145438,3.711617 6.10215,4.387886 11.009034,4.387886a11.999847,11.999847 0 0 0 7.297417,-2.956712a15.271103,15.271103 0 0 0 4.167706,-6.086423l-3.286983,-1.745718a2.217534,2.217534 0 0 0 -1.226721,-0.50327a9.341951,9.341951 0 0 1 -1.28963,2.359079a7.942231,7.942231 0 0 1 -14.044382,-0.754905a9.436315,9.436315 0 0 1 -0.817814,-3.145438l21.184526,0a15.601374,15.601374 0 0 0 -3.444255,-11.009034a12.927751,12.927751 0 0 0 -22.018068,4.08907a16.875276,16.875276 0 0 0 -1.053722,5.693243z" class="cls-1"/>
    <path stroke="null" id="svg_4" d="m191.242934,169.746048a7.863596,7.863596 0 0 1 6.872782,3.145438a13.619747,13.619747 0 0 1 1.100903,2.18608l-14.752105,0a8.130958,8.130958 0 0 1 2.40626,-3.680163a7.250235,7.250235 0 0 1 4.372159,-1.651355l0,0zm-12.676116,8.162412a14.516197,14.516197 0 0 0 3.617254,10.788853c4.136251,5.142791 13.085023,5.504517 18.039088,1.305357a15.161012,15.161012 0 0 0 2.484896,-2.720804a11.889756,11.889756 0 0 0 1.729991,-3.475709c-0.754905,-0.39318 -1.352538,-0.754905 -2.138898,-1.163812a9.672223,9.672223 0 0 0 -2.201807,-1.100903a16.120371,16.120371 0 0 1 -3.003893,4.293523a8.020867,8.020867 0 0 1 -10.851762,-0.330271a8.618501,8.618501 0 0 1 -2.091716,-3.80598a12.581753,12.581753 0 0 0 -0.377453,-1.698537l21.184526,0l0,-1.729991c0,-7.171599 -5.567426,-13.714111 -12.676116,-13.714111a11.653849,11.653849 0 0 0 -9.860949,4.026161a14.657742,14.657742 0 0 0 -3.853162,9.326224z" class="cls-1"/>
    <path stroke="null" id="svg_5" d="m44.681241,179.638451c0,-2.90953 0.330271,-5.2057 2.390533,-7.344598c5.331518,-5.551698 13.934291,-1.336811 13.934291,5.944878a8.807227,8.807227 0 0 1 -2.390533,6.982873a6.778419,6.778419 0 0 1 -2.40626,1.824354c-6.007787,2.893803 -11.528031,-2.610714 -11.528031,-7.360325l0,0l0,-0.047182zm-5.2057,-2.028808l0,2.437715a14.311744,14.311744 0 0 0 3.774526,8.728591a11.795393,11.795393 0 0 0 9.939585,4.120524a10.600127,10.600127 0 0 0 6.039241,-1.950172l1.572719,-1.179539l0,2.610714l5.2057,0l0,-26.736225a0.424634,0.424634 0 0 0 -0.518997,-0.518997c-5.614607,0 -4.718157,-0.534724 -4.718157,2.610714a23.826694,23.826694 0 0 0 -3.271256,-2.107444a12.581753,12.581753 0 0 0 -14.154472,3.019621a16.120371,16.120371 0 0 0 -1.383993,1.745718a11.606667,11.606667 0 0 0 -1.210994,2.091716a12.251482,12.251482 0 0 0 -1.273902,5.127064z" class="cls-1"/>
    <path stroke="null" id="svg_6" d="m98.169417,187.800864c-9.106044,0 -11.323578,-13.258022 -3.648708,-17.18982a7.973686,7.973686 0 0 1 6.904237,-0.11009a7.376053,7.376053 0 0 1 2.437715,1.90299a9.971039,9.971039 0 0 1 1.777173,9.923858a9.137498,9.137498 0 0 1 -1.572719,2.752258a8.618501,8.618501 0 0 1 -5.929151,2.752258l0,0l0.031454,-0.031454zm-13.572566,-9.40486a14.437561,14.437561 0 0 0 7.061509,12.912024a12.48739,12.48739 0 0 0 12.833388,-0.471816a16.875276,16.875276 0 0 1 1.572719,-1.148085l0,2.610714l5.032701,0l0,-27.270949l-5.032701,0l0,2.783713a18.432268,18.432268 0 0 0 -3.145438,-2.201807a12.471663,12.471663 0 0 0 -14.579106,3.145438a13.855655,13.855655 0 0 0 -3.727344,9.672223l-0.015727,-0.031454z" class="cls-1"/>
    <path stroke="null" id="svg_7" d="m152.695589,192.314567l5.2057,0c0,-2.940985 -0.220181,-14.233108 0.298817,-16.545005c1.572719,-6.621147 8.649955,-7.863596 10.914671,-4.057615a13.714111,13.714111 0 0 1 1.116631,6.699783l0,13.88711l4.718157,0a0.424634,0.424634 0 0 0 0.518997,-0.518997c0,-2.68935 0.172999,-14.752105 -0.267362,-17.614454a12.974933,12.974933 0 0 0 -1.415447,-4.843975a9.530678,9.530678 0 0 0 -12.581753,-3.821707a13.682656,13.682656 0 0 0 -3.239801,2.138898l0,-12.125664l-5.2057,0l0,36.817354l-0.062909,-0.015727z" class="cls-1"/>
    <path stroke="null" id="svg_17" d="m73.336183,165.027891c-2.453442,0 -4.167706,-0.377453 -4.167706,0.518997l0,4.513704l4.167706,0l0,22.222521l4.718157,0a0.424634,0.424634 0 0 0 0.518997,-0.518997l0,-21.672069l4.718157,0l0,-5.064156l-4.718157,0l0,-9.168952l-5.2057,0l0,9.168952l-0.031454,0z" class="cls-1"/>
    <rect stroke="null" id="svg_18" height="36.817354" width="5.2057" y="155.497211" x="236.741681" class="cls-3"/>
   </g>
   <g stroke="null" id="svg_21">
    <path stroke="null" id="svg_8" d="m95.314928,133.745263c1.572719,2.374806 8.618501,6.290876 11.763939,7.517597a45.766126,45.766126 0 0 0 15.554192,3.428528l2.736531,0a48.219568,48.219568 0 0 0 15.601374,-3.318437a44.209134,44.209134 0 0 0 10.710217,-6.290876a2.516351,2.516351 0 0 0 1.116631,-1.321084c-0.125818,-0.204453 -2.626441,-2.830894 -2.783713,-2.956712a8.209594,8.209594 0 0 0 -2.532078,1.572719a37.053262,37.053262 0 0 1 -5.174246,3.145438a40.041428,40.041428 0 0 1 -33.860642,1.321084a35.27609,35.27609 0 0 1 -5.300063,-2.862349a59.464509,59.464509 0 0 0 -5.064156,-3.271256a14.154472,14.154472 0 0 1 -2.767986,3.035348z" class="cls-2"/>
    <path stroke="null" id="svg_9" d="m79.839372,99.884621l0.251635,4.623794a41.975873,41.975873 0 0 0 2.878076,12.235755c0.251635,0.644815 0.440361,1.037995 0.754905,1.667082s0.50327,1.195267 0.802087,1.7929l2.705077,4.718157a47.684843,47.684843 0 0 0 3.365619,4.262069l3.145438,-3.145438c-2.846622,-4.19916 -4.262069,-5.551698 -6.290876,-10.490036a39.868429,39.868429 0 0 1 -0.094363,-30.101844a32.209287,32.209287 0 0 1 4.560885,-8.115231c2.107444,-2.815167 2.767986,-2.264716 -1.195267,-5.70897c-2.437715,1.572719 -6.290876,8.665682 -7.549052,11.905484a46.002034,46.002034 0 0 0 -3.334165,16.356279z" class="cls-2"/>
    <path stroke="null" id="svg_10" d="m154.527802,74.705388a6.38524,6.38524 0 0 0 1.667082,2.673622l1.777173,2.594987a35.338998,35.338998 0 0 1 2.893803,5.787606a39.223615,39.223615 0 0 1 2.060262,22.694337a40.890697,40.890697 0 0 1 -7.596233,16.372006a2.705077,2.705077 0 0 0 -0.817814,1.446902l2.90953,2.988166a5.551698,5.551698 0 0 0 1.258175,-1.258175a33.027101,33.027101 0 0 0 6.290876,-10.741672c5.189973,-14.028654 4.403614,-27.223768 -3.365619,-40.104337a21.451889,21.451889 0 0 0 -4.136251,-5.410154c-0.487543,0.361725 -2.940985,2.359079 -2.940985,2.956712z" class="cls-2"/>
    <path stroke="null" id="svg_11" d="m95.314928,66.888974c0.220181,0.314544 2.846622,3.145438 3.145438,3.30271l2.579259,-1.761445a32.822648,32.822648 0 0 1 6.809874,-3.963252a39.58534,39.58534 0 0 1 39.317978,3.868889a21.656342,21.656342 0 0 0 2.484896,1.855809l3.334165,-3.255529l-5.520244,-3.868889c-5.976333,-3.601527 -14.154472,-6.778419 -21.357525,-6.778419l-3.994707,0c-7.643415,0 -15.129558,3.145438 -21.200254,6.762692c-2.547805,1.494083 -3.570072,2.484896 -5.59888,3.837435z" class="cls-2"/>
    <path stroke="null" id="svg_12" d="m122.302788,133.572264c5.016974,0 11.355032,-0.204453 15.459829,-2.956712c-0.676269,-1.28963 -1.39972,-2.532078 -2.075989,-3.821707a17.095457,17.095457 0 0 0 -2.453442,0.676269a27.365312,27.365312 0 0 1 -17.881816,0.220181l-2.532078,-0.943631a32.712557,32.712557 0 0 1 -4.293523,-2.29617a28.969486,28.969486 0 0 1 -7.564779,-7.360325a31.454382,31.454382 0 0 1 -1.981626,-3.224074a35.055909,35.055909 0 0 1 -3.224074,-10.144038l-4.513704,0c0,8.256775 5.646062,16.309097 9.860949,20.539712c5.189973,5.284336 13.745565,9.310497 21.200254,9.310497z" class="cls-2"/>
    <path stroke="null" id="svg_13" d="m91.147222,97.273907c5.771879,0 4.372159,0.660542 4.954065,-2.500623c2.846622,-15.39692 18.526631,-25.556685 34.269549,-22.143885c1.761445,0.377453 4.246342,1.572719 5.394427,1.572719c0.283089,-1.069449 1.824354,-3.003893 1.90299,-3.994707a5.268609,5.268609 0 0 1 -1.321084,-0.581906c-3.648708,-1.7929 -9.656495,-2.201807 -13.777019,-2.201807a32.287923,32.287923 0 0 0 -19.375899,7.360325a35.323271,35.323271 0 0 0 -6.448148,6.919964c-0.298817,0.408907 -0.50327,0.707724 -0.770632,1.132358c-2.453442,3.931798 -4.828248,9.719404 -4.828248,14.437561z" class="cls-2"/>
    <path stroke="null" id="svg_14" d="m141.175417,77.819372c2.500623,1.321084 3.365619,2.830894 5.252882,4.81252c2.988166,3.145438 6.21224,11.009034 6.21224,16.372006a29.331211,29.331211 0 0 1 -3.601527,15.569919a20.759892,20.759892 0 0 1 -3.491436,4.843975l-0.975086,1.116631a4.718157,4.718157 0 0 1 -0.581906,0.456089a6.086423,6.086423 0 0 0 -0.534724,0.50327a9.326224,9.326224 0 0 1 -2.29617,1.871536a38.971979,38.971979 0 0 0 2.075989,3.994707c1.965899,-0.456089 5.174246,-4.262069 6.558239,-5.944878l2.18608,-3.019621c0.377453,-0.566179 0.691996,-0.990813 1.022267,-1.572719a32.618194,32.618194 0 0 0 0,-32.287923a26.736225,26.736225 0 0 0 -1.950172,-3.145438c-0.408907,-0.566179 -0.676269,-1.00654 -1.085176,-1.572719l-1.195267,-1.415447a14.940832,14.940832 0 0 1 -1.242448,-1.368266a16.529278,16.529278 0 0 0 -4.277796,-3.349892a29.126758,29.126758 0 0 0 -2.075989,4.136251z" class="cls-2"/>
    <path stroke="null" id="svg_15" d="m125.353863,82.8678c4.435068,1.037995 7.313144,1.729991 10.80458,4.81252a18.054815,18.054815 0 0 1 3.444255,4.435068c4.969792,9.971039 0.314544,21.215981 -8.649955,24.5816c-0.534724,0.204453 -1.069449,0.314544 -1.572719,0.550452l0.345998,4.513704c3.538618,0 9.121771,-4.214887 11.433668,-7.140145a21.750705,21.750705 0 0 0 3.428528,-5.787606a22.442702,22.442702 0 0 0 -0.440361,-17.976179a14.374653,14.374653 0 0 0 -0.943631,-1.667082a17.29991,17.29991 0 0 0 -1.00654,-1.572719a22.442702,22.442702 0 0 0 -12.660389,-8.524138a24.518691,24.518691 0 0 0 -4.718157,-0.723451l0.534724,4.497977z" class="cls-2"/>
    <path stroke="null" id="svg_16" d="m123.277874,122.626139a32.885557,32.885557 0 0 0 -0.440361,-4.246342c-0.267362,-0.471816 -2.626441,-0.770632 -3.743071,-1.116631c-16.859549,-5.221427 -15.334011,-27.050769 -2.815167,-32.539558c0.880723,-0.377453 1.887263,-0.61336 2.657895,-0.990813c0,-1.336811 -0.408907,-3.145438 -0.518997,-4.513704c-2.972439,0 -7.706324,3.255529 -9.766586,5.331518l-2.359079,2.862349c-5.520244,8.146685 -6.039241,18.101997 0.220181,26.453135a22.191067,22.191067 0 0 0 16.765186,8.760045z" class="cls-2"/>
   </g>
  </g>
 </g>
</svg>