<svg width="250" height="250" xmlns="http://www.w3.org/2000/svg">
 <defs>
  <style>.cls-1{fill:#2670b8;fill-rule:evenodd;}</style>
 </defs>
 <title>fapemig</title>
 <g>
  <title>background</title>
  <rect fill="none" id="canvas_background" height="252" width="252" y="-1" x="-1"/>
 </g>
 <g>
  <title>Layer 1</title>
  <g stroke="null" id="svg_15">
   <path stroke="null" id="svg_1" d="m141.603133,193.799272l4.000059,0l0.064983,-22.383004c1.501827,1.992809 7.1409,11.552518 7.899034,12.361195l0.527084,-0.649829c1.55237,-2.332165 6.389987,-10.621097 7.299748,-11.747467c0.548745,5.162532 -0.498202,18.375724 0.144406,22.383004l3.985619,0l0,-26.498589c-0.389897,-2.989214 -4.166127,-5.285277 -7.1409,-0.101085c-0.953083,1.660675 -4.122805,7.660764 -4.815956,8.563304c-1.855623,-1.530709 -4.743753,-11.270926 -8.353915,-11.610281c-4.794295,-0.44766 -3.696806,6.642698 -3.696806,9.617471c-0.014441,2.628198 -0.173288,18.888367 0.086644,20.06528z" class="cls-1"/>
   <path stroke="null" id="svg_2" d="m93.83347,193.74873l4.815956,0c0.288813,-2.426029 -0.375457,-8.844897 0.173288,-10.570554c7.068697,0.108305 11.675264,-0.620948 12.996583,-6.967613c1.068608,-5.198633 -0.722032,-11.458654 -7.841272,-11.740247c-8.960422,-0.361016 -10.180657,0.238271 -10.180657,9.386421c0,2.88813 -0.187728,18.397385 0.057763,19.848671l0,0l-0.021661,0.043322zm4.90982,-15.668103a71.481207,71.481207 0 0 1 0,-7.761848c0.093864,-1.025286 0.252711,-0.909761 1.234675,-0.909761c3.292468,0 6.260021,-0.433219 6.953172,2.722062a6.433309,6.433309 0 0 1 -0.180508,3.458535c-1.11915,2.909791 -5.090328,2.570435 -8.029,2.534334l0.021661,-0.043322z" class="cls-1"/>
   <path stroke="null" id="svg_3" d="m64.497293,193.75595l4.823176,0l2.166097,-6.779884l9.862963,-0.036102a67.907147,67.907147 0 0 0 2.209419,6.823206l5.054227,0c-0.043322,-0.685931 -7.061477,-21.964225 -7.559679,-23.429951c-0.873659,-2.541554 -1.321319,-6.158936 -4.397177,-6.23836c-3.220264,-0.086644 -3.740128,3.213044 -4.577685,5.899005s-7.530798,22.873986 -7.566899,23.754866l0,0l-0.014441,0.00722zm8.584965,-11.834111l3.386332,-10.70052l3.256366,10.722181l-6.642698,-0.021661z" class="cls-1"/>
   <path stroke="null" id="svg_4" d="m204.16724,192.355207l0.057763,-16.115763l-9.386421,0l0,4.873719l4.527143,0l0,7.220324c-1.220235,0.642609 -3.769009,0.476541 -5.054227,0.180508a6.498292,6.498292 0 0 1 -3.682365,-2.166097c-4.519923,-4.837617 -3.1264,-21.213312 10.108454,-16.325152c0.90254,0.332135 1.299658,0.787015 2.267182,0.67871l0,-4.982024c-1.227455,-0.960303 -5.559649,-1.631793 -7.501917,-1.581251c-14.173496,0.382677 -15.704205,21.40826 -6.310563,27.827128a12.274551,12.274551 0 0 0 7.285307,1.833962c1.819522,-0.093864 6.303343,-0.722032 7.689645,-1.444065z" class="cls-1"/>
   <path stroke="null" id="svg_5" d="m135.104841,193.799272l0.108305,-5.162532c-3.436874,0 -6.859308,0 -10.274521,0c-2.375487,0 -2.346605,-0.296033 -2.346605,-2.642639a50.210133,50.210133 0 0 1 0.057763,-5.148091l9.292557,0l0,-4.880939l-9.314218,-0.064983c-0.541524,-7.112019 0.332135,-6.281682 2.981994,-6.281682l9.58137,0c0,-1.133591 0.151627,-4.22389 -0.086644,-5.169752l-8.01456,0c-4.534363,0 -9.429743,-0.90254 -9.429743,6.628257l0,16.086882c0,7.559679 4.924261,6.628257 9.429743,6.628257l8.01456,0l0,0.00722z" class="cls-1"/>
   <path stroke="null" id="svg_6" d="m96.620515,124.289213c-1.11915,4.729312 -1.501827,11.292587 0.722032,15.37207c1.833962,3.415213 5.834022,6.115614 10.065132,7.870153c9.039846,3.747348 20.216907,5.054227 31.264003,4.209449c9.516387,-0.722032 21.531006,-3.913416 26.462487,-9.198693c5.162532,-5.530768 4.693211,-13.848581 2.599317,-21.314396c-0.433219,-1.545149 -1.617353,-5.704056 -2.404368,-6.657139c-1.79064,1.718437 -0.722032,2.252741 0.129966,6.23836c1.010845,4.823176 1.191353,10.065132 -0.685931,14.664478a15.090477,15.090477 0 0 1 -3.472976,5.054227c-5.537988,4.642668 -14.346784,8.816016 -23.827069,9.870183a48.968237,48.968237 0 0 1 -27.906552,-5.400802c-11.552518,-6.108394 -9.386421,-9.58859 -10.946011,-14.187937c-0.361016,-1.046947 -0.722032,-2.108335 -1.003625,-3.184163a18.628436,18.628436 0 0 0 -0.996405,-3.33579z" class="cls-1"/>
   <path stroke="null" id="svg_7" d="m100.801082,77.999716l2.491012,0.072203a30.686377,30.686377 0 0 0 1.761759,-2.628198c1.79064,-2.635418 4.036161,-5.285277 7.263646,-6.303343c4.729312,-1.494607 11.321468,-0.397118 15.83417,0.794236a56.491815,56.491815 0 0 1 23.242223,12.794414c6.325004,5.776259 13.631972,14.375665 11.783569,23.697103c-1.176913,5.942327 -6.743783,12.353974 -10.613876,16.361254c-0.851998,0.88088 -3.256366,4.873719 -3.725687,5.097549c1.537929,-0.086644 9.610251,-7.220324 11.126519,-8.758253a40.296628,40.296628 0 0 0 4.491041,-5.559649c8.90988,-12.996583 -4.426059,-25.697133 -12.137365,-32.072679c-6.296122,-5.205854 -15.985797,-11.552518 -25.740455,-14.440648c-4.989244,-1.444065 -12.180686,-2.989214 -17.119388,-0.397118c-2.353826,1.234675 -3.696806,2.801486 -5.176972,4.866498c-0.758134,0.974744 -3.220264,5.068667 -3.480196,6.476631z" class="cls-1"/>
   <path stroke="null" id="svg_8" d="m114.368071,151.119937c-1.155252,-0.317694 -2.339385,-0.563185 -3.509077,-0.88088c-2.303283,-0.613728 -6.325004,0.628168 -12.274551,-0.137186c-5.704056,-0.722032 -8.01456,-3.682365 -10.353945,-7.566899c-7.552459,-12.570584 -8.736592,-29.545566 -3.682365,-44.043976c1.444065,-4.22389 3.956738,-8.967642 6.325004,-11.610281a9.935166,9.935166 0 0 1 5.328599,-3.552399c5.465785,-1.610132 14.115733,-0.353796 19.567078,1.314099c0.606507,0.187728 1.126371,0.490982 1.588471,0.238271a5.292497,5.292497 0 0 0 1.198574,-1.184133c-4.945922,-1.754539 -9.104828,-3.472976 -15.083257,-4.057822c-6.498292,-0.635389 -11.285366,0.490982 -14.397326,4.440499c-5.530768,7.010935 -8.202288,18.686198 -8.527203,29.791057s1.046947,22.440767 6.173377,32.159323c4.216669,8.000119 11.465874,8.816016 20.029179,7.177002c1.689556,-0.296033 6.45497,-1.285218 7.617442,-2.086674z" class="cls-1"/>
   <path stroke="null" id="svg_9" d="m46.034925,193.799272l4.722092,0l0.079424,-12.71499l9.278116,0l0.064983,-5.054227l-9.35032,-0.043322c0,-6.6788 -0.563185,-6.325004 3.184163,-6.317783c2.635418,0 7.097578,0.259932 9.516387,-0.064983l0,-5.054227c-3.776229,-0.180508 -7.942356,0 -11.689704,0c-2.209419,0 -3.104739,0.259932 -4.288872,1.501827a5.920666,5.920666 0 0 0 -1.617353,4.288872c-0.072203,2.45491 -0.158847,22.368564 0.101085,23.458832z" class="cls-1"/>
   <path stroke="null" id="svg_10" d="m123.018019,87.256172a13.256515,13.256515 0 0 0 2.209419,1.198574a66.42698,66.42698 0 0 1 13.834141,9.790759a35.574536,35.574536 0 0 1 6.043411,7.36473c4.938702,8.072322 3.870094,13.790819 -0.772575,21.509345a48.80217,48.80217 0 0 1 -21.754836,19.133858a22.910088,22.910088 0 0 0 -2.729282,1.162472c1.920606,1.393523 3.494637,0 5.422463,-0.981964a77.928956,77.928956 0 0 0 9.603031,-5.985649a62.434141,62.434141 0 0 0 8.382796,-7.220324a45.112584,45.112584 0 0 0 3.725687,-4.144466c7.80517,-9.848522 6.974833,-17.769217 -1.270777,-26.953469c-0.649829,-0.722032 -1.148032,-1.34298 -1.833962,-2.021691l-4.195008,-3.682365a91.033844,91.033844 0 0 0 -11.624722,-7.985678c-0.830337,-0.490982 -1.631793,-0.89532 -2.469351,-1.379082c-1.314099,-0.736473 -1.400743,-0.844778 -2.570435,0.194949z" class="cls-1"/>
   <path stroke="null" id="svg_11" d="m95.501364,105.191456c0,8.158966 0.722032,16.9461 3.870094,24.029238c3.494637,7.942356 6.938731,10.325063 16.49122,10.325063c4.22389,0 9.610251,-1.184133 13.256515,-2.324944a84.145655,84.145655 0 0 0 8.563304,-3.162502a5.408023,5.408023 0 0 0 1.870064,-2.22386c-1.321319,0.324915 -4.823176,2.065013 -8.92432,3.032536a46.831021,46.831021 0 0 1 -12.418957,1.400743c-6.404427,0 -11.285366,-1.263557 -14.072411,-5.104769c-7.480256,-10.296182 -9.169811,-26.715199 -6.180597,-39.206359c0.649829,-2.722062 1.444065,-5.054227 2.296063,-7.444154l-1.812301,0.079424c-0.866439,2.166097 -1.696776,7.018155 -2.065013,9.631912a79.069768,79.069768 0 0 0 -0.873659,10.967672z" class="cls-1"/>
   <path stroke="null" id="svg_12" d="m99.775796,118.982275c1.10471,-2.166097 1.371862,-9.935166 9.870183,-21.350498a55.091072,55.091072 0 0 1 7.552459,-8.029a38.78758,38.78758 0 0 1 9.465845,-6.115614c4.700431,-2.122775 7.783509,-1.639014 12.137365,0.606507a38.195514,38.195514 0 0 1 4.765414,2.938672a57.928659,57.928659 0 0 1 8.209508,7.379171a55.928629,55.928629 0 0 1 6.671579,9.083168c0.483762,0.830337 0.89532,1.602912 1.386302,2.476571l1.205794,2.332165a0.722032,0.722032 0 0 0 0.296033,0.303254c0.599287,-1.725657 0.866439,-1.11193 -0.101085,-2.88813c-5.090328,-9.184252 -12.216788,-19.494875 -21.39382,-24.693508c-4.527143,-2.548774 -7.862933,-3.292468 -13.191532,-0.945862c-9.682454,4.259991 -19.133858,17.480404 -23.762086,26.715199a88.889408,88.889408 0 0 0 -3.805111,8.758253a2.252741,2.252741 0 0 0 0.093864,1.819522l0.541524,1.494607l0.057763,0.115525z" class="cls-1"/>
   <polygon stroke="null" id="svg_13" points="173.01153564453125,193.74151611328125 177.9213104248047,193.77037048339844 177.9213104248047,164.4630889892578 173.01153564453125,164.43417358398438 173.01153564453125,193.74151611328125 " class="cls-1"/>
  </g>
 </g>
</svg>