<?xml version="1.0" encoding="UTF-8" standalone="no"?>
<svg
   xmlns:dc="http://purl.org/dc/elements/1.1/"
   xmlns:cc="http://creativecommons.org/ns#"
   xmlns:rdf="http://www.w3.org/1999/02/22-rdf-syntax-ns#"
   xmlns:svg="http://www.w3.org/2000/svg"
   xmlns="http://www.w3.org/2000/svg"
   xmlns:sodipodi="http://sodipodi.sourceforge.net/DTD/sodipodi-0.dtd"
   xmlns:inkscape="http://www.inkscape.org/namespaces/inkscape"
   data-name="Layer 1"
   width="103.01"
   height="40.099998"
   id="svg2"
   version="1.1"
   inkscape:version="0.91 r13725"
   sodipodi:docname="vectorpaint.svg">
  <metadata
     id="metadata67">
    <rdf:RDF>
      <cc:Work
         rdf:about="">
        <dc:format>image/svg+xml</dc:format>
        <dc:type
           rdf:resource="http://purl.org/dc/dcmitype/StillImage" />
        <dc:title>governo</dc:title>
      </cc:Work>
    </rdf:RDF>
  </metadata>
  <sodipodi:namedview
     pagecolor="#ffffff"
     bordercolor="#666666"
     borderopacity="1"
     objecttolerance="10"
     gridtolerance="10"
     guidetolerance="10"
     inkscape:pageopacity="0"
     inkscape:pageshadow="2"
     inkscape:window-width="1680"
     inkscape:window-height="1026"
     id="namedview65"
     showgrid="false"
     inkscape:zoom="6.8154869"
     inkscape:cx="52.041549"
     inkscape:cy="44.126628"
     inkscape:window-x="0"
     inkscape:window-y="24"
     inkscape:window-maximized="1"
     inkscape:current-layer="svg2" />
  <rect
     id="backgroundrect"
     width="122.01"
     height="40.099998"
     x="0"
     y="0"
     style="fill:none;stroke:none" />
  <defs
     id="defs5">
    <style
       id="style7">.cls-1,.cls-2{fill:#231f20;}.cls-1,.cls-3,.cls-4,.cls-5{fill-rule:evenodd;}.cls-3{fill:url(#GradientFill_1);}.cls-4{fill:url(#GradientFill_2);}.cls-5{fill:#808285;}</style>
    <linearGradient
       id="GradientFill_1"
       x1="7.21"
       y1="16.74"
       x2="67.5"
       y2="16.74"
       gradientUnits="userSpaceOnUse">
      <stop
         offset="0"
         stop-color="#af2d2f"
         id="stop10" />
      <stop
         offset="0.22"
         stop-color="#b63130"
         id="stop12" />
      <stop
         offset="0.56"
         stop-color="#cb3b34"
         id="stop14" />
      <stop
         offset="0.96"
         stop-color="#ec4c3a"
         id="stop16" />
      <stop
         offset="1"
         stop-color="#f04e3b"
         id="stop18" />
    </linearGradient>
    <linearGradient
       id="GradientFill_2"
       x1="2.53"
       y1="16.74"
       x2="73.879997"
       y2="16.74"
       gradientUnits="userSpaceOnUse">
      <stop
         offset="0"
         stop-color="#f38734"
         id="stop21" />
      <stop
         offset="0.23"
         stop-color="#ef6338"
         id="stop23" />
      <stop
         offset="0.5"
         stop-color="#ee3439"
         id="stop25" />
      <stop
         offset="0.69"
         stop-color="#d53034"
         id="stop27" />
      <stop
         offset="1"
         stop-color="#c13030"
         id="stop29" />
    </linearGradient>
  </defs>
  <title
     id="title31">governo</title>
  <g
     id="g3423"
     transform="translate(-18.824999,0.01105464)">
    <path
       class="cls-1"
       d="m 64.810004,10.910001 5.46,-10.25000008 a 0.87,0.87 0 0 1 1,-0.48 l 2.26,0 0,16.13000008 -2.64,0 0,-11.3400001 -4.8,8.7300001 a 1.16,1.16 0 0 1 -1.06,0.66 l -0.41,0 a 1.16,1.16 0 0 1 -1.06,-0.66 l -4.86,-8.7800001 0,11.3900001 -2.64,0 0,-16.13000008 2.21,0 a 0.89,0.89 0 0 1 1,0.48 z"
       id="svg_1"
       inkscape:connector-curvature="0"
       style="fill:#231f20;fill-rule:evenodd" />
    <rect
       class="cls-2"
       x="76.300003"
       y="0.18000001"
       width="3.01"
       height="16.129999"
       id="svg_2"
       style="fill:#231f20" />
    <path
       class="cls-1"
       d="m 84.450004,0.66000092 8.39,10.69000008 0,-11.17000008 2.64,0 0,16.13000008 -1.55,0 a 1.14,1.14 0 0 1 -1,-0.51 l -8.36,-10.6500001 0,11.1600001 -2.65,0 0,-16.13000008 1.57,0 a 1,1 0 0 1 0.96,0.48 z"
       id="svg_3"
       inkscape:connector-curvature="0"
       style="fill:#231f20;fill-rule:evenodd" />
    <path
       class="cls-1"
       d="m 101.15,10.220001 5.12,0 -2.58,-7.2600001 -2.57,7.2600001 0,0 z m 10.44,6.09 -2.32,0 a 1,1 0 0 1 -1,-0.68 l -1.2,-3.29 -6.68,0 -1.209996,3.29 a 1.06,1.06 0 0 1 -1,0.68 l -2.33,0 6.339996,-16.13000008 3.08,0 z"
       id="svg_4"
       inkscape:connector-curvature="0"
       style="fill:#231f20;fill-rule:evenodd" />
    <path
       class="cls-1"
       d="m 120.95,3.1200009 a 0.69,0.69 0 0 1 -0.67,0.45 c -0.6,0 -1.41,-1.12 -3.25,-1.12 -1.65,0 -2.5,0.84 -2.5,2 0,3.06 7.44,1.42 7.44,6.7800001 0,2.91 -2,5.23 -5.6,5.23 a 7.56,7.56 0 0 1 -5.3,-2.12 l 0.87,-1.44 a 0.88,0.88 0 0 1 0.68,-0.37 c 0.75,0 1.62,1.47 3.84,1.47 1.71,0 2.69,-0.84 2.69,-2.35 0,-3.4100001 -7.43,-1.15 -7.43,-7.0500001 0,-2.37 1.92,-4.62999998 5.28,-4.62999998 a 6.72,6.72 0 0 1 4.69,1.69999998 z"
       id="svg_5"
       inkscape:connector-curvature="0"
       style="fill:#231f20;fill-rule:evenodd" />
    <path
       class="cls-1"
       d="m 65.600004,30.520001 0,-2.8 -1.93,0 a 0.54,0.54 0 0 1 -0.6,-0.53 l 0,-1.63 5.13,0 0,6.23 a 9.35,9.35 0 0 1 -5.88,1.66 7.55,7.55 0 0 1 -7.75,-7.87 c 0,-4.65 3.11,-7.87 8,-7.87 a 7.9,7.9 0 0 1 5.61,2 l -0.82,1.33 a 0.73,0.73 0 0 1 -0.65,0.39 1,1 0 0 1 -0.52,-0.17 6.24,6.24 0 0 0 -3.7,-1.1 c -3,0 -5,2.14 -5,5.43 0,3.54 2.1,5.59 5,5.59 a 6.64,6.64 0 0 0 3.11,-0.66 z"
       id="svg_6"
       inkscape:connector-curvature="0"
       style="fill:#231f20;fill-rule:evenodd" />
    <polygon
       class="cls-1"
       points="72.79,31 79.62,31 79.62,33.29 69.9,33.29 69.9,17.88 79.62,17.88 79.62,17.88 79.62,20.16 72.79,20.16 72.79,24.43 78.17,24.43 78.17,26.64 72.79,26.64 "
       id="svg_7"
       style="fill:#231f20;fill-rule:evenodd" />
    <path
       class="cls-1"
       d="m 84.080004,25.210001 1.79,0 c 2.17,0 3.18,-1.13 3.18,-2.69 0,-1.56 -1,-2.43 -3.13,-2.43 l -1.83,0 0,5.12 0,0 z m 0,2.06 0,6 -2.87,0 0,-15.39 4.7,0 c 4.21,0 5.93,1.82 5.93,4.43 a 4.49,4.49 0 0 1 -3.4,4.4 2.85,2.85 0 0 1 0.94,0.88 l 3.86,5.69 -2.57,0 a 1.19,1.19 0 0 1 -1.08,-0.58 l -3.24,-4.93 a 1,1 0 0 0 -1,-0.51 l -1.22,0 z"
       id="svg_8"
       inkscape:connector-curvature="0"
       style="fill:#231f20;fill-rule:evenodd" />
    <path
       class="cls-1"
       d="m 97.490004,27.470001 4.909996,0 -2.459996,-6.94 -2.45,6.94 0,0 z m 9.999996,5.82 -2.22,0 a 1,1 0 0 1 -1,-0.65 l -1.15,-3.14 -6.379996,0 -1.15,3.14 a 1,1 0 0 1 -0.95,0.65 l -2.23,0 6.05,-15.41 2.929996,0 z"
       id="svg_9"
       inkscape:connector-curvature="0"
       style="fill:#231f20;fill-rule:evenodd" />
    <rect
       class="cls-2"
       x="107.85"
       y="17.879999"
       width="2.8800001"
       height="15.41"
       id="svg_10"
       style="fill:#231f20" />
    <path
       class="cls-1"
       d="m 121.02,20.680001 a 0.66,0.66 0 0 1 -0.64,0.43 c -0.58,0 -1.34,-1.07 -3.1,-1.07 -1.58,0 -2.39,0.8 -2.39,1.94 0,2.92 7.11,1.35 7.11,6.48 0,2.78 -2,5 -5.35,5 a 7.22,7.22 0 0 1 -5.06,-2 l 0.83,-1.37 a 0.84,0.84 0 0 1 0.65,-0.35 c 0.71,0 1.54,1.41 3.66,1.41 1.63,0 2.57,-0.8 2.57,-2.25 0,-3.26 -7.1,-1.1 -7.1,-6.73 0,-2.26 1.83,-4.42 5,-4.42 a 6.42,6.42 0 0 1 4.48,1.62 z"
       id="svg_11"
       inkscape:connector-curvature="0"
       style="fill:#231f20;fill-rule:evenodd" />
    <polygon
       class="cls-3"
       points="18.66,22.87 18.66,22.87 56.05,33.29 38.21,0.2 "
       id="svg_13"
       style="fill:url(#GradientFill_1);fill-rule:evenodd" />
    <polygon
       class="cls-4"
       points="20.37,33.29 20.37,33.29 56.05,33.29 38.21,0.2 "
       id="svg_14"
       style="fill:url(#GradientFill_2);fill-rule:evenodd" />
    <path
       class="cls-5"
       d="m 23.010004,39.410001 0,-0.67 -0.46,0 a 0.13,0.13 0 0 1 -0.14,-0.13 l 0,-0.39 1.22,0 0,1.48 a 2.23,2.23 0 0 1 -1.4,0.4 1.87524,1.87524 0 1 1 0.06,-3.75 1.88,1.88 0 0 1 1.33,0.48 l -0.2,0.31 a 0.17,0.17 0 0 1 -0.15,0.09 0.22,0.22 0 0 1 -0.12,0 1.48,1.48 0 0 0 -0.88,-0.26 1.17,1.17 0 0 0 -1.19,1.29 1.19,1.19 0 0 0 1.2,1.33 1.58,1.58 0 0 0 0.73,-0.18 z"
       id="svg_15"
       inkscape:connector-curvature="0"
       style="fill:#808285;fill-rule:evenodd" />
    <path
       class="cls-5"
       d="m 29.270004,36.940001 0,0 a 1.3,1.3 0 1 0 1.16,1.29 1.14,1.14 0 0 0 -1.16,-1.29 l 0,0 z m 0,3.17 a 1.87,1.87 0 1 1 1.86,-1.87 1.79,1.79 0 0 1 -1.86,1.87 z"
       id="svg_16"
       inkscape:connector-curvature="0"
       style="fill:#808285;fill-rule:evenodd" />
    <path
       class="cls-5"
       d="m 34.520004,36.400001 0.55,0 a 0.23,0.23 0 0 1 0.23,0.15 l 0.86,2.24 a 4,4 0 0 1 0.16,0.51 3,3 0 0 1 0.14,-0.51 l 0.86,-2.24 a 0.24,0.24 0 0 1 0.23,-0.15 l 0.55,0 -1.48,3.64 -0.62,0 z"
       id="svg_17"
       inkscape:connector-curvature="0"
       style="fill:#808285;fill-rule:evenodd" />
    <polygon
       class="cls-5"
       points="42.52,39.52 44.15,39.52 44.15,40.06 41.83,40.06 41.83,36.4 44.15,36.4 44.15,36.4 44.15,36.94 42.52,36.94 42.52,37.96 43.8,37.96 43.8,38.48 42.52,38.48 "
       id="svg_18"
       style="fill:#808285;fill-rule:evenodd" />
    <path
       class="cls-5"
       d="m 48.790004,38.140001 0.43,0 a 0.64,0.64 0 0 0 0.76,-0.64 0.6,0.6 0 0 0 -0.75,-0.58 l -0.44,0 0,1.22 0,0 z m 0,0.49 0,1.41 -0.68,0 0,-3.67 1.16,0 c 1,0 1.41,0.43 1.41,1.05 a 1.07,1.07 0 0 1 -0.81,1 0.68,0.68 0 0 1 0.22,0.21 l 0.88,1.41 -0.61,0 a 0.28,0.28 0 0 1 -0.26,-0.14 l -0.77,-1.17 a 0.25,0.25 0 0 0 -0.25,-0.12 l -0.29,0 z"
       id="svg_19"
       inkscape:connector-curvature="0"
       style="fill:#808285;fill-rule:evenodd" />
    <path
       class="cls-5"
       d="m 55.340004,36.510001 1.92,2.45 a 3.15,3.15 0 0 1 0,-0.33 l 0,-2.23 0.6,0 0,3.64 -0.35,0 a 0.26,0.26 0 0 1 -0.24,-0.12 l -1.92,-2.44 c 0,0.11 0,0.22 0,0.31 l 0,2.25 -0.6,0 0,-3.67 0.36,0 a 0.22,0.22 0 0 1 0.23,0.14 z"
       id="svg_20"
       inkscape:connector-curvature="0"
       style="fill:#808285;fill-rule:evenodd" />
    <path
       class="cls-5"
       d="m 63.600004,36.940001 0,0 a 1.3,1.3 0 1 0 1.16,1.29 1.14,1.14 0 0 0 -1.16,-1.29 l 0,0 z m 0,3.17 a 1.87,1.87 0 1 1 1.86,-1.87 1.79,1.79 0 0 1 -1.86,1.87 z"
       id="svg_21"
       inkscape:connector-curvature="0"
       style="fill:#808285;fill-rule:evenodd" />
    <path
       class="cls-5"
       d="m 75.070004,36.940001 -0.71,0 0,2.58 0.71,0 a 1.3,1.3 0 0 0 0,-2.58 l 0,0 z m 0,3.12 -1.4,0 0,-3.67 1.4,0 a 1.83,1.83 0 1 1 0,3.65 z"
       id="svg_22"
       inkscape:connector-curvature="0"
       style="fill:#808285;fill-rule:evenodd" />
    <polygon
       class="cls-5"
       points="81.5,39.52 83.13,39.52 83.13,40.06 80.82,40.06 80.82,36.4 83.13,36.4 83.13,36.4 83.13,36.94 81.5,36.94 81.5,37.96 82.78,37.96 82.78,38.48 81.5,38.48 "
       id="svg_23"
       style="fill:#808285;fill-rule:evenodd" />
    <polygon
       class="cls-5"
       points="91.09,36.4 93.98,36.4 93.98,36.4 93.98,36.96 92.88,36.96 92.88,40.06 92.2,40.06 92.2,36.96 91.09,36.96 "
       id="svg_24"
       style="fill:#808285;fill-rule:evenodd" />
    <path
       class="cls-5"
       d="m 99.270004,36.940001 0,0 a 1.3,1.3 0 1 0 1.159996,1.29 1.14,1.14 0 0 0 -1.159996,-1.29 l 0,0 z m 0,3.17 a 1.87,1.87 0 1 1 1.859996,-1.87 1.79,1.79 0 0 1 -1.859996,1.87 z"
       id="svg_25"
       inkscape:connector-curvature="0"
       style="fill:#808285;fill-rule:evenodd" />
    <path
       class="cls-5"
       d="m 106.37,36.940001 -0.71,0 0,2.58 0.71,0 a 1.3,1.3 0 0 0 0,-2.58 l 0,0 z m 0,3.12 -1.4,0 0,-3.67 1.4,0 a 1.83,1.83 0 1 1 0,3.65 z"
       id="svg_26"
       inkscape:connector-curvature="0"
       style="fill:#808285;fill-rule:evenodd" />
    <path
       class="cls-5"
       d="m 113.77,36.940001 0,0 a 1.3,1.3 0 1 0 1.16,1.29 1.14,1.14 0 0 0 -1.16,-1.29 l 0,0 z m 0,3.17 a 1.87,1.87 0 1 1 1.86,-1.87 1.79,1.79 0 0 1 -1.86,1.87 z"
       id="svg_27"
       inkscape:connector-curvature="0"
       style="fill:#808285;fill-rule:evenodd" />
    <path
       class="cls-5"
       d="m 121.48,37.040001 a 0.16,0.16 0 0 1 -0.15,0.1 2.09,2.09 0 0 0 -0.74,-0.25 0.48,0.48 0 0 0 -0.57,0.46 c 0,0.7 1.69,0.32 1.69,1.54 a 1.17,1.17 0 0 1 -1.27,1.19 1.72,1.72 0 0 1 -1.2,-0.48 l 0.2,-0.33 a 0.2,0.2 0 0 1 0.15,-0.08 2.3,2.3 0 0 0 0.87,0.34 0.52,0.52 0 0 0 0.61,-0.54 c 0,-0.78 -1.69,-0.26 -1.69,-1.6 a 1.1,1.1 0 0 1 1.2,-1.05 1.53,1.53 0 0 1 1.06,0.39 z"
       id="svg_28"
       inkscape:connector-curvature="0"
       style="fill:#808285;fill-rule:evenodd" />
  </g>
</svg>
