<svg width="250" height="250" xmlns="http://www.w3.org/2000/svg">
 <defs>
  <style>.cls-1{fill:#808285;}.cls-1,.cls-2{fill-rule:evenodd;}.cls-2{fill:#f8991d;}</style>
 </defs>
 <title>r13</title>
 <g>
  <title>background</title>
  <rect fill="none" id="canvas_background" height="252" width="252" y="-1" x="-1"/>
 </g>
 <g>
  <title>Layer 1</title>
  <g stroke="null" id="svg_6">
   <path stroke="null" id="svg_1" d="m108.27708,124.145495c1.507436,0.799123 12.241104,5.448563 13.948321,5.666505c2.379206,-10.188812 14.656634,-10.715507 19.015484,-5.448563c3.832156,4.576793 4.667602,10.679183 0.29059,15.219652a10.897125,10.897125 0 0 1 -2.597148,2.215749a9.080938,9.080938 0 0 1 -3.19649,1.598245c1.289493,1.816188 8.735862,4.050098 8.554243,12.150295c-0.127133,5.357753 -4.576793,10.897125 -10.297783,10.897125c-3.632375,0 -6.1932,0 -8.844833,-2.924062a12.949417,12.949417 0 0 1 -2.924062,-6.229523c-1.816188,0.145295 -11.932352,5.03084 -13.948321,6.10239c1.071551,2.233911 0.908094,4.35885 3.813994,7.954902a27.769508,27.769508 0 0 0 33.926384,6.68357c19.596664,-10.897125 11.514629,-31.18394 11.514629,-34.253297c0,-1.235008 0.853608,-3.741346 1.126036,-5.448563c5.049001,-30.657246 -26.025968,-38.557662 -41.772314,-26.9159c-3.214652,2.415529 -8.209168,7.809607 -8.608729,12.731475z" class="cls-1"/>
   <path stroke="null" id="svg_2" d="m47.253178,145.50386l0,34.925287a1.053389,1.053389 0 0 0 1.307655,1.253169l15.255976,0l0,-38.357881a19.015484,19.015484 0 0 1 5.993419,-14.529501a22.956611,22.956611 0 0 1 14.929062,-5.557534l0,-16.94503c-2.651634,0.617504 -5.248782,0.87177 -8.027549,1.561921a39.520241,39.520241 0 0 0 -13.330817,5.848124c-10.315945,6.738056 -16.127746,19.415045 -16.127746,31.801444z" class="cls-1"/>
   <path stroke="null" id="svg_3" d="m195.889968,132.863195c6.992322,0 5.666505,-7.26475 5.666505,-12.20478c0,-9.080938 -2.996709,-16.345688 -6.828865,-24.118971c-3.105681,-6.284009 -6.10239,-8.917481 -9.662118,-13.439788a74.009643,74.009643 0 0 0 -12.840446,-10.26146a72.538531,72.538531 0 0 0 -37.431626,-11.024259c-4.631278,0 -6.284009,6.68357 -2.306558,10.152488c1.961483,1.707216 3.795832,1.471112 7.101293,1.616407c10.897125,0.472209 23.301686,7.083132 31.202102,13.258169a54.685408,54.685408 0 0 1 15.292299,19.978063c7.155779,15.237814 0.163457,26.04413 9.807413,26.04413z" class="cls-2"/>
   <path stroke="null" id="svg_4" d="m89.969909,182.118202l14.874576,0a1.053389,1.053389 0 0 0 1.253169,-1.307655l0,-74.972223l-16.127746,0l0,76.279878z" class="cls-1"/>
   <path stroke="null" id="svg_5" d="m132.686641,90.146463c0,7.26475 6.520113,5.8118 12.840446,7.64615a30.475627,30.475627 0 0 1 13.203684,7.718797a29.295105,29.295105 0 0 1 9.317042,16.836059c0.363238,1.816188 0.181619,2.815091 0.417723,4.812897c0.799123,6.320333 11.060582,6.810703 11.696248,-0.454047a46.694182,46.694182 0 0 0 -1.45295,-10.243298a38.430529,38.430529 0 0 0 -7.973063,-15.128842c-6.39298,-7.918578 -19.215264,-16.345688 -29.785476,-16.345688c-2.742443,-0.072648 -8.263653,-1.16236 -8.263653,5.157973z" class="cls-2"/>
  </g>
 </g>
</svg>